<?xml version="1.0" encoding="utf-8"?>
<!-- Generator: Adobe Illustrator 22.1.0, SVG Export Plug-In . SVG Version: 6.00 Build 0)  -->
<svg version="1.1" id="Слой_1" xmlns="http://www.w3.org/2000/svg" xmlns:xlink="http://www.w3.org/1999/xlink" x="0px" y="0px"
	 viewBox="0 0 100.4 114.1" style="enable-background:new 0 0 100.4 114.1;" xml:space="preserve">
<style type="text/css">
	
		.st0{opacity:0.15;fill:#D2D8E6;stroke:#0563AB;stroke-width:1.0602;stroke-miterlimit:10;stroke-dasharray:4.2406,2.6504;enable-background:new    ;}
	.st1{fill:#FFFFFF;stroke:#0563AB;stroke-width:1.4899;stroke-miterlimit:10;}
	.st2{fill:#FFFFFF;stroke:#0563AB;stroke-width:1.9866;stroke-miterlimit:10;}
	.st3{fill:none;stroke:#0563AB;stroke-width:1.9866;stroke-miterlimit:10;}
	.st4{fill:#FFFFFF;stroke:#FBB715;stroke-width:1.9866;stroke-miterlimit:10;}
	.st5{fill:#FFFFFF;stroke:#0563AB;stroke-width:0.9933;stroke-linecap:round;stroke-linejoin:round;stroke-miterlimit:10;}
	.st6{fill:none;stroke:#FBB715;stroke-width:1.9866;stroke-miterlimit:10;}
</style>
<g>
	<path class="st0" d="M45.8,109.6C18.2,92.2,3.5,72.8,2.3,51.9C0.6,24.5,23,5.9,24,5.1l3.7-3l4.5,1.6c0.1,0,8.3,2.8,19,2.8l0,0
		c6.3,0,12.1-0.9,17.4-2.8l4.5-1.6l3.7,3c1,0.8,23.3,19.3,21.7,46.8C97.2,72.8,82.6,92.2,55,109.7l-4.5,2.9L45.8,109.6z"/>
	<path class="st1" d="M71.3,11.7c0,0,53.6,43.7-21,90.8c-74.6-47.1-21-90.8-21-90.8S50.3,19,71.3,11.7z"/>
	<rect x="31.7" y="29.1" class="st2" width="36.5" height="42.2"/>
	<line class="st3" x1="38.4" y1="36.1" x2="62" y2="36.1"/>
	<line class="st3" x1="38.4" y1="41.2" x2="62" y2="41.2"/>
	<line class="st3" x1="38.4" y1="46.4" x2="62" y2="46.4"/>
	<polyline class="st4" points="44.6,65.8 44.6,77.9 49.9,74.3 55.4,77.9 55.4,65.8 	"/>
	<path class="st4" d="M42.8,61.3c-0.4-0.3-0.7-0.8-0.7-1.3s0.2-1,0.7-1.3c1-0.6,1.4-1.8,1.2-2.9c-0.1-0.5,0-1,0.4-1.4
		s0.9-0.5,1.4-0.4c1.1,0.2,2.3-0.2,2.9-1.2c0.3-0.4,0.8-0.7,1.3-0.7s1,0.2,1.3,0.7c0.6,1,1.8,1.4,2.9,1.2c0.5-0.1,1,0,1.4,0.4
		s0.5,0.9,0.4,1.4c-0.2,1.1,0.2,2.3,1.2,2.9c0.4,0.3,0.7,0.8,0.7,1.3s-0.2,1-0.7,1.3c-1,0.6-1.4,1.8-1.2,2.9c0.1,0.5,0,1-0.4,1.4
		s-0.9,0.5-1.4,0.4c-1.1-0.2-2.3,0.2-2.9,1.2c-0.3,0.4-0.8,0.7-1.3,0.7s-1-0.2-1.3-0.7c-0.5-0.8-1.4-1.3-2.3-1.3
		c-0.2,0-0.4,0-0.6,0.1c-0.5,0.1-1,0-1.4-0.4s-0.5-0.9-0.4-1.4C44.3,63,43.8,61.9,42.8,61.3z"/>
	<polygon class="st5" points="50,56.3 50.8,58.9 53.5,58.9 51.3,60.5 52.2,63 50,61.4 47.8,63 48.6,60.5 46.5,58.9 49.2,58.9 	"/>
	<line class="st6" x1="50" y1="68" x2="50" y2="74.3"/>
</g>
</svg>
