<?xml version="1.0" encoding="utf-8"?>
<!-- Generator: Adobe Illustrator 22.1.0, SVG Export Plug-In . SVG Version: 6.00 Build 0)  -->
<svg version="1.1" id="Слой_1" xmlns="http://www.w3.org/2000/svg" xmlns:xlink="http://www.w3.org/1999/xlink" x="0px" y="0px"
	 viewBox="0 0 116.3 109.7" style="enable-background:new 0 0 116.3 109.7;" xml:space="preserve">
<style type="text/css">
	
		.st0{opacity:0.15;fill:#D2D8E6;stroke:#0563AB;stroke-width:0.9946;stroke-miterlimit:10;stroke-dasharray:3.9783,2.4864;enable-background:new    ;}
	.st1{fill:#FFFFFF;stroke:#0563AB;stroke-width:1.4918;stroke-miterlimit:10;}
	.st2{fill:#FFFFFF;stroke:#0563AB;stroke-width:1.9891;stroke-miterlimit:10;}
	.st3{fill:none;stroke:#0563AB;stroke-width:1.9891;stroke-linecap:round;stroke-linejoin:round;stroke-miterlimit:10;}
	.st4{fill:none;stroke:#FBB715;stroke-width:1.9891;stroke-miterlimit:10;}
</style>
<g>
	<g>
		<path class="st0" d="M57.4,107.6c-21.6,0-30.5-9.3-32.6-11.9c-8.6-9.7-9.9-27.1-10-29v-0.1v-0.1c-0.5-14.9-2.3-38.2-2.3-38.4V28
			v-0.1C12.1,20,10,17,9.5,16.4L1.5,2h112.8l-8,14.4c-0.5,0.6-2.7,3.6-3,11.5V28v0.1c0,0.2-1.9,23.5-2.4,38.4v0.2
			c-0.1,2-1.5,19.3-10,29c-2.1,2.6-11,11.9-32.6,11.9H57.4z"/>
		<path class="st1" d="M101.6,9.8c0,0-5.7,3.6-6.3,17.6c0,0-1.9,23.5-2.4,38.7c0,0-1.1,16.6-8.2,24.5c0,0-6.3,9-26.5,9h-0.7
			c-20.3,0-26.5-9-26.5-9c-7.1-7.8-8.2-24.4-8.2-24.4c-0.5-15.2-2.4-38.7-2.4-38.7c-0.6-14.1-6.3-17.6-6.3-17.6L101.6,9.8L101.6,9.8
			z"/>
	</g>
	<g>
		<rect x="37.7" y="35.6" class="st2" width="40.4" height="38.8"/>
		<line class="st3" x1="46" y1="31.9" x2="46" y2="38.9"/>
		<line class="st3" x1="58" y1="31.9" x2="58" y2="38.9"/>
		<line class="st3" x1="70.1" y1="31.9" x2="70.1" y2="38.9"/>
		<line class="st4" x1="45" y1="52.2" x2="50.8" y2="52.2"/>
		<line class="st4" x1="55.1" y1="52.2" x2="60.9" y2="52.2"/>
		<line class="st4" x1="65.2" y1="52.2" x2="71" y2="52.2"/>
		<line class="st4" x1="45" y1="59.2" x2="50.8" y2="59.2"/>
		<line class="st4" x1="55.1" y1="59.2" x2="60.9" y2="59.2"/>
		<line class="st4" x1="65.2" y1="59.2" x2="71" y2="59.2"/>
		<line class="st4" x1="45" y1="66.3" x2="50.8" y2="66.3"/>
		<line class="st4" x1="55.1" y1="66.3" x2="60.9" y2="66.3"/>
		<line class="st4" x1="65.2" y1="66.3" x2="71" y2="66.3"/>
		<line class="st3" x1="37.7" y1="44.7" x2="78" y2="44.7"/>
	</g>
</g>
</svg>
