<?xml version="1.0" encoding="utf-8"?>
<!-- Generator: Adobe Illustrator 22.1.0, SVG Export Plug-In . SVG Version: 6.00 Build 0)  -->
<svg version="1.1" id="Слой_1" xmlns="http://www.w3.org/2000/svg" xmlns:xlink="http://www.w3.org/1999/xlink" x="0px" y="0px"
	 viewBox="0 0 103.3 112" style="enable-background:new 0 0 103.3 112;" xml:space="preserve">
<style type="text/css">
	
		.st0{opacity:0.15;fill:#D2D8E6;stroke:#0563AB;stroke-width:1.0002;stroke-miterlimit:10;stroke-dasharray:4.0009,2.5006;enable-background:new    ;}
	.st1{fill:#FFFFFF;stroke:#0563AB;stroke-width:1.5003;stroke-miterlimit:10;}
	.st2{fill:#FFFFFF;stroke:#FBB715;stroke-width:2.0005;stroke-miterlimit:10;}
	.st3{fill:#FFFFFF;stroke:#0563AB;stroke-width:2.0005;stroke-miterlimit:10;}
</style>
<g>
	<path class="st0" d="M47.6,107.8C45,106.1,31.2,97,19.4,81.5C3.9,61-1.5,37.9,3.6,14.5l1.8-8.4l8.2,2.6c0,0,5.3,1.6,12.4,1.6
		c8.2,0,15.4-2,21.4-6l4.3-2.8L56,4.3c6,4,13.2,6,21.4,6c7.2,0,12.4-1.6,12.5-1.6l8.2-2.6l1.8,8.4C105,37.8,99.5,61,84.1,81.4
		c-11.7,15.5-25.5,24.7-28.2,26.4l-4.2,2.6L47.6,107.8z"/>
	<path class="st1" d="M51.7,101.2c-4.4-2.8-51.7-34-40.5-85c0,0,21.9,7,40.5-5.3c18.6,12.2,40.5,5.3,40.5,5.3
		C103.4,67.2,56.2,98.4,51.7,101.2z"/>
	<polyline class="st2" points="53.4,39.6 57.6,26.6 61.8,39.6 75.4,39.6 64.4,47.5 68.6,60.5 57.6,52.5 46.6,60.5 50.8,47.5 	"/>
	<polygon class="st3" points="52.1,29.4 57.1,44.6 73,44.6 60.1,54 65,69.2 52.1,59.8 39.2,69.2 44.1,54 31.2,44.6 47.2,44.6 	"/>
</g>
</svg>
