<?xml version="1.0" encoding="utf-8"?>
<!-- Generator: Adobe Illustrator 22.1.0, SVG Export Plug-In . SVG Version: 6.00 Build 0)  -->
<svg version="1.1" id="Слой_1" xmlns="http://www.w3.org/2000/svg" xmlns:xlink="http://www.w3.org/1999/xlink" x="0px" y="0px"
	 viewBox="0 0 69 95" style="enable-background:new 0 0 69 95;" xml:space="preserve">
<style type="text/css">
	.st0{fill:#FFFFFF;stroke:#0563AB;stroke-width:1.5077;stroke-miterlimit:10;}
	.st1{fill:none;stroke:#0563AB;stroke-width:1.5077;stroke-miterlimit:10;}
	.st2{fill:#FFFFFF;stroke:#FBB715;stroke-width:2.0103;stroke-miterlimit:10;}
</style>
<g>
	<g>
		<path class="st0" d="M37.6,2.1h19.5c0,0,4.5,0.5,4.5,4.5l5,62.7c0,0,0.4,5.9-3.9,8.4L35,92.8c-0.4,0.2-0.9,0-0.9,0L6.4,77.7
			c-4.3-2.5-3.9-8.4-3.9-8.4l5-62.7c0-4.1,4.5-4.5,4.5-4.5h19.5C31.5,2.1,37.6,2.1,37.6,2.1z"/>
	</g>
	<g>
		<line class="st1" x1="31.5" y1="56.6" x2="31.5" y2="64.8"/>
		<line class="st1" x1="39" y1="56.6" x2="39" y2="64.8"/>
		<path class="st1" d="M44,68.5H26c-1,0-1.9-0.8-1.9-1.9v-0.4c0-1,0.8-1.9,1.9-1.9h18c1,0,1.9,0.8,1.9,1.9v0.4
			C45.8,67.6,45,68.5,44,68.5z"/>
		<path class="st1" d="M21.1,47.3L21.1,47.3c-3.6,0-7.9-3.9-7.9-8.8v-9c0-0.9,0.8-1.7,1.7-1.7h6.2V47.3z"/>
		<path class="st1" d="M49.2,47.3L49.2,47.3c3.6,0,7.9-3.9,7.9-8.8v-9c0-0.9-0.8-1.7-1.7-1.7h-6.2C49.2,27.8,49.2,47.3,49.2,47.3z"
			/>
		<path class="st2" d="M36.4,56.6h-2.8c-6.9,0-12.5-5.6-12.5-12.5V24.6H49v19.5C49,51,43.4,56.6,36.4,56.6z"/>
		<path class="st2" d="M24.5,36.4c0,0,0,4.6,0,8.9s3,8.3,9.7,8.3"/>
	</g>
</g>
</svg>
