<?xml version="1.0" encoding="utf-8"?>
<!-- Generator: Adobe Illustrator 22.1.0, SVG Export Plug-In . SVG Version: 6.00 Build 0)  -->
<svg version="1.1" id="Слой_1" xmlns="http://www.w3.org/2000/svg" xmlns:xlink="http://www.w3.org/1999/xlink" x="0px" y="0px"
	 viewBox="0 0 72.7 90.7" style="enable-background:new 0 0 72.7 90.7;" xml:space="preserve">
<style type="text/css">
	.st0{fill:#FFFFFF;stroke:#0563AB;stroke-width:1.4329;stroke-miterlimit:10;}
	.st1{fill:#FFFFFF;stroke:#0563AB;stroke-width:1.9106;stroke-miterlimit:10;}
	.st2{fill:none;stroke:#0563AB;stroke-width:1.9106;stroke-miterlimit:10;}
	.st3{fill:none;stroke:#FBB715;stroke-width:1.9106;stroke-miterlimit:10;}
</style>
<g>
	<g>
		<path class="st0" d="M58.2,83.8c0,0-19.3,1-21.9,3.9c-2.7-3-21.9-3.9-21.9-3.9C1.3,84.5,2.2,72.5,2.2,72.5V12.6c0.1,0,0.3,0,0.4,0
			c5.8,0,10.5-4.7,10.5-10.5c0-0.1,0-0.2,0-0.3h46.6c0,0.1,0,0.2,0,0.3c0,5.8,4.7,10.5,10.5,10.5c0.1,0,0.2,0,0.2,0v59.9
			C70.4,72.5,71.3,84.5,58.2,83.8z"/>
	</g>
	<g>
		<rect x="16.7" y="34" class="st1" width="39.2" height="24"/>
		<path class="st2" d="M27.5,33.5v-3.2c0-1.6,1.3-2.9,2.9-2.9h11.4c1.6,0,2.9,1.3,2.9,2.9v3.2"/>
		<line class="st2" x1="24.5" y1="34" x2="24.5" y2="58"/>
		<line class="st2" x1="48.2" y1="34" x2="48.2" y2="58"/>
		<line class="st3" x1="30.4" y1="46" x2="42.2" y2="46"/>
		<line class="st3" x1="36.1" y1="40.1" x2="36.1" y2="51.9"/>
	</g>
</g>
</svg>
