<?xml version="1.0" encoding="utf-8"?>
<!-- Generator: Adobe Illustrator 22.1.0, SVG Export Plug-In . SVG Version: 6.00 Build 0)  -->
<svg version="1.1" id="Слой_1" xmlns="http://www.w3.org/2000/svg" xmlns:xlink="http://www.w3.org/1999/xlink" x="0px" y="0px"
	 viewBox="0 0 88.5 94.5" style="enable-background:new 0 0 88.5 94.5;" xml:space="preserve">
<style type="text/css">
	.st0{fill:#FFFFFF;stroke:#0563AB;stroke-width:1.5003;stroke-miterlimit:10;}
	.st1{fill:#FFFFFF;stroke:#FBB715;stroke-width:2.0005;stroke-miterlimit:10;}
	.st2{fill:#FFFFFF;stroke:#0563AB;stroke-width:2.0005;stroke-miterlimit:10;}
</style>
<g>
	<path class="st0" d="M44.3,92.4c-4.4-2.8-51.7-34-40.5-85c0,0,21.9,7,40.5-5.3c18.6,12.2,40.5,5.3,40.5,5.3
		C95.9,58.4,48.8,89.7,44.3,92.4z"/>
	<polyline class="st1" points="45.9,30.8 50.2,17.8 54.3,30.8 67.9,30.8 56.9,38.8 61.2,51.8 50.2,43.8 39.2,51.8 43.3,38.8 	"/>
	<polygon class="st2" points="44.7,20.7 49.7,35.8 65.6,35.8 52.7,45.3 57.6,60.4 44.7,51.1 31.8,60.4 36.7,45.3 23.8,35.8 
		39.8,35.8 	"/>
</g>
</svg>
