<?xml version="1.0" encoding="utf-8"?>
<!-- Generator: Adobe Illustrator 22.1.0, SVG Export Plug-In . SVG Version: 6.00 Build 0)  -->
<svg version="1.1" id="Слой_1" xmlns="http://www.w3.org/2000/svg" xmlns:xlink="http://www.w3.org/1999/xlink" x="0px" y="0px"
	 viewBox="0 0 88.5 90.7" style="enable-background:new 0 0 88.5 90.7;" xml:space="preserve">
<style type="text/css">
	.st0{fill:#FFFFFF;stroke:#0563AB;stroke-width:1.4458;stroke-miterlimit:10;}
	.st1{fill:none;stroke:#0563AB;stroke-width:1.9277;stroke-miterlimit:10;}
	.st2{fill:#FFFFFF;stroke:#FBB715;stroke-width:1.9277;stroke-miterlimit:10;}
	.st3{fill:none;stroke:#FBB715;stroke-width:1.9277;stroke-miterlimit:10;}
</style>
<g>
	<g>
		<path class="st0" d="M44.3,88.7C-11.1,60.8,3,1.9,3,1.9c25.6,18.4,26,0,26,0h30.6c0,0,0.3,18.4,25.9,0
			C85.4,1.9,99.7,60.8,44.3,88.7z"/>
	</g>
	<g>
		<path class="st1" d="M33.3,32.3c0,0-4.4,5.2-5,10.3s0.6,10.3,0.9,12.9c0.4,2.6,0.4,6.7,8.5,7.7c1.5,0.3,3.9,2.7,8.5,2.7
			s7.4-4.5,7.4-4.5s5.6,1.4,6.8-1.9c1.2-3.3,2-12.5,1.7-15.7c-0.3-3.3-4.1-10.7-5.6-12"/>
		<path class="st1" d="M38,62.7c-1.6-2.5-4.5-4.8-4.7-9.2c-0.2-4.4,1-10.5,3.5-13.2c1.5,0.2,2.7,2.6,5.2,2s6.3-4.1,10-3.1
			c1.3,1,5.2,7.5,4.7,12.5c-0.6,5.1-3.1,9.6-3.1,9.6"/>
		<path class="st2" d="M33.3,32.3c0,0,6.2-1.2,11.8-1.2S57,32.3,57,32.3l3-11c0,0-4.9-1.9-14.4-1.9s-15.4,2.2-15.4,2.2L33.3,32.3z"
			/>
		<line class="st3" x1="45.1" y1="22" x2="45.1" y2="27.2"/>
		<line class="st3" x1="42.6" y1="24.6" x2="47.7" y2="24.6"/>
	</g>
</g>
</svg>
