<?xml version="1.0" encoding="utf-8"?>
<!-- Generator: Adobe Illustrator 22.1.0, SVG Export Plug-In . SVG Version: 6.00 Build 0)  -->
<svg version="1.1" id="Layer_1" xmlns="http://www.w3.org/2000/svg" xmlns:xlink="http://www.w3.org/1999/xlink" x="0px" y="0px"
	 viewBox="0 0 80.3 91.4" style="enable-background:new 0 0 80.3 91.4;" xml:space="preserve">
<style type="text/css">
	.st0{fill:#F7F7F7;}
</style>
<path class="st0" d="M80.3,24.8V9.6l0,0V0H0v9.6v15.1l4.1-0.2c0.5,0,1-0.1,1.5-0.1c0.3,0,0.7,0,1-0.1c0,1.2-0.4,3.9-4.5,6L0,31.4
	v4.1C-0.1,38-0.1,64.1,37.9,89.9l2.2,1.5l2.2-1.5c38.1-25.7,38-51.9,37.9-54.4v-4.4l-2-1.2c-3.3-1.9-3.8-4.1-3.9-5.7
	c0.3,0,0.7,0,1,0.1L80.3,24.8z"/>
</svg>
