<?xml version="1.0" encoding="utf-8"?>
<!-- Generator: Adobe Illustrator 22.1.0, SVG Export Plug-In . SVG Version: 6.00 Build 0)  -->
<svg version="1.1" id="Layer_1" xmlns="http://www.w3.org/2000/svg" xmlns:xlink="http://www.w3.org/1999/xlink" x="0px" y="0px"
	 viewBox="0 0 1182.1 1371.1" style="enable-background:new 0 0 1182.1 1371.1;" xml:space="preserve">
<style type="text/css">
	.st0{fill:none;stroke:#F7F7F7;stroke-width:79.35;stroke-miterlimit:10;}
</style>
<path class="st0" d="M558.9,1299.5C55.6,959.1,56.1,612.8,57.3,580.3v-54.1l28.3-14.9c53.8-28.2,58.6-63.6,59-79.5
	c-4.2,0.2-8.7,0.5-13.2,0.8c-6.3,0.4-12.8,0.9-19.3,1.1l-54.8,2V108.6c0,0,85,63.4,85.2,63.6c1-4,2.1-8.8,3.1-14.7l7.7-43.7h880.6
	l7.7,43.7c1.1,6,2.1,10.9,3.2,15l74.9-49.2v313.5l-64-4.1c-4.5-0.3-8.9-0.6-13.2-0.8c0.8,20.8,8.2,49.6,51.2,75.1l25.9,15.4v58
	c1.2,32.5,1.7,378.8-501.6,719.2l-29.6,20L558.9,1299.5z M1043.1,419.9L1043.1,419.9z M144.1,419.9L144.1,419.9z"/>
</svg>
