<?xml version="1.0" encoding="utf-8"?><svg xmlns="http://www.w3.org/2000/svg" xmlns:xlink="http://www.w3.org/1999/xlink"><symbol viewBox="0 0 52.5 67" id="arrow-down" xmlns="http://www.w3.org/2000/svg"><path d="M25.8 66.9c.3.1.7.1 1 0 .2-.1.3-.2.4-.3l24.8-22c.6-.6.7-1.5.1-2.1s-1.5-.7-2.1-.1L27.8 62.2V1.5c0-.8-.7-1.5-1.5-1.5s-1.5.7-1.5 1.5v60.7L2.5 42.4c-.6-.6-1.6-.5-2.1.1s-.5 1.6.1 2.1l24.8 22c.2.2.3.3.5.3z"/></symbol><symbol viewBox="0 0 67 52.5" id="arrow-left" xmlns="http://www.w3.org/2000/svg"><path d="M.1 25.8c-.1.3-.1.7 0 1 .1.2.2.3.3.4l22 24.8c.6.6 1.5.7 2.1.1s.7-1.5.1-2.1L4.8 27.8h60.7c.8 0 1.5-.7 1.5-1.5s-.7-1.5-1.5-1.5H4.8L24.7 2.5c.6-.6.5-1.6-.1-2.1S23-.1 22.4.5L.4 25.3c-.1.1-.2.3-.3.5z"/></symbol><symbol viewBox="0 0 67 52.5" id="arrow-right" xmlns="http://www.w3.org/2000/svg"><path d="M66.9 26.7c.1-.3.1-.7 0-1-.1-.2-.2-.3-.3-.4L44.6.5c-.6-.6-1.5-.7-2.1-.1s-.7 1.5-.1 2.1l19.8 22.2H1.5c-.8 0-1.5.7-1.5 1.5s.7 1.5 1.5 1.5h60.7L42.3 50c-.6.6-.5 1.6.1 2.1s1.6.5 2.1-.1l22-24.8c.2-.1.3-.3.4-.5z"/></symbol><symbol viewBox="0 0 52.5 67" id="arrow-top" xmlns="http://www.w3.org/2000/svg"><path d="M26.7.1c-.3-.1-.7-.1-1 0-.2.1-.3.2-.4.3L.5 22.4c-.6.6-.7 1.5-.1 2.1s1.5.7 2.1.1L24.7 4.9v60.7c0 .8.7 1.5 1.5 1.5s1.5-.7 1.5-1.5V4.9L50 24.7c.6.6 1.6.5 2.1-.1s.5-1.6-.1-2.1L27.2.5c-.1-.2-.3-.3-.5-.4z"/></symbol><symbol viewBox="0 0 19.4 15.9" id="comma" xmlns="http://www.w3.org/2000/svg"><path d="M19 0h-7.4c-.3 0-.5.2-.5.5v7.4c0 .3.2.5.5.5h6.9c-.2 3.8-3 6.5-6.9 6.5-.3 0-.5.2-.5.5s.2.5.5.5c4.6 0 7.8-3.2 7.8-7.8V.7c.1-.5-.1-.7-.4-.7zm-6.9.9h6.5v6.5h-6.5V.9zM7.9 0H.5C.2 0 0 .2 0 .5v7.4c0 .3.2.5.5.5h6.9c-.2 3.8-3 6.5-6.9 6.5-.3 0-.5.2-.5.5s.2.5.5.5c4.6 0 7.8-3.2 7.8-7.8V.7c.1-.5-.1-.7-.4-.7zM1 .9h6.5v6.5H1V.9z"/></symbol><symbol id="history_left" viewBox="0 0 26.1 50.8" xmlns="http://www.w3.org/2000/svg"><style>.fst0{fill:#888e9c}</style><path class="fst0" d="M25.4 0l.7.7L1.4 25.4l24.7 24.7-.7.7L0 25.4z"/></symbol><symbol id="history_right" viewBox="0 0 26.1 50.8" xmlns="http://www.w3.org/2000/svg"><style>.gst0{fill:#888e9c}</style><path class="gst0" d="M.7 50.8l-.7-.7 24.7-24.7L0 .7.7 0l25.4 25.4z"/></symbol><symbol id="logo_fb" viewBox="0 0 155.1 155.1" xmlns="http://www.w3.org/2000/svg"><style>.hst0{fill:#010002}</style><path id="hf_1_" class="hst0" d="M89.6 155.1V84.4h23.7l3.6-27.6H89.6V39.2c0-8 2.2-13.4 13.7-13.4h14.6V1.1C115.3.8 106.7 0 96.6 0 75.5 0 61.1 12.9 61.1 36.5v20.3H37.3v27.6h23.8v70.8h28.5z"/></symbol><symbol id="logo_footer" viewBox="0 0 127.5 170.3" xmlns="http://www.w3.org/2000/svg"><style>.ist0{fill:#0060aa}</style><path class="ist0" d="M63.1 168.2c5.4-1.9 26-14.6 30.2-17.7 4.8-3.5 8.9-6.8 12.7-11 3.5-3.8 7.8-10 8.7-14.9h8.2v-6.9c2-.5 2.3-.5 4.4-2.1-2.2-1.7-4.4-2.2-4.4-6.3l-.1-76.9c0-3.7-.2-4.9 3.8-8-3-1-5.6-1.9-9-1.5l-.2-10.9H94c-.7-.4-3.3-3.7-4.7-4.7-6.8-5-14-6.4-22.8-6.8-5.9-.5-16 .1-22.5.3-3.8.1-4.6.8-5.9 1.9-2-2.6-8.8-1.5-12.4-1 3.9 3.5 4.7 5.2 4.7 10.3H9.7l-.1 10.8c-3.8-.1-6.1.3-9.1 2.1 3 1.5 4.2 3.1 4.1 7.2v12.1c0 8.7 0 17.3-.1 26l-.1 38.6c0 2.6-1.8 5.5-4.5 6.7 1.9 1.2 2.3 1.4 4.5 2.2l-.1 6.9h7.2c4.4 16 22.1 26.9 36.1 35.1 2.2 1.3 14.1 8 15.5 8.5M38.4 7c1.2-2 1.8-2.8 4.4-3.1 2.2-.2 5-.2 7.3-.3 4.9-.2 10.1-.3 15-.1 8 .3 17.1 1.5 23 7 8.6 8 6.8 23-2.8 29.9-2.5 1.8-4.6 2.8-7.5 3.7-1.3.4-2 .1-2.3 1.2.5.9 2.1.8 3.2 1.1 24.6 5.8 21.4 28.7 12.7 36.2-3.6 3.1-5.4 4.7-10 6.6-9.5 4-20.1 3.8-30.3 3.5-2.5-.1-5.4-.1-7.9-.4-3.2-.4-3.4-1-4.9-3.3-.9 1.2-.8 1.9-2.3 2.6-1.4.7-2.7.8-4.2.6 1-1.3 1.4-2 1.7-3.2.5-2.2-.1-33.8.1-34.3.7-.7 2.8-.6 3.9-.5 0 4.3.2 8.6.4 12.9.2 3.3.2 9.1 1 12.2l1-25.3 3.2.1V86c6 1 16.2 1.5 22.3.9 24.2-2.3 27.2-30.2 6.9-35.1V41.6c2-1.7 3.8-2.7 5.4-4.7 5.4-6.6 4.8-16.2 0-21.7-3.3-3.7-9.3-5.5-14.5-5.7-6.7-.3-13.3-.1-20 .5v31l-3.2-.3-1.2-23.5c-1 7.1-1.1 16-1.2 23.4l-3.8-.4c-.2-9.2-.1-19.3-.1-28.7 0-4.7.4-4-2.2-7.6 4.5-.1 4.7.1 6.9 3.1zm58.5 15.5c-.2-2.9-.6-4.4-1.3-7 1.9-.2 15.9-.3 17.1.1l.1 7.4c-5-.8-13.6.1-15.9-.5zm-50.4-6.4c-.1-3.9-.2-3.5 1.4-3.6 3.8-.2 13.5-.3 16.7.1 5.3.6 11.8 3.3 12.8 8.7-2-1.3-3-2.5-5.7-3.5-8.8-3.4-19.6-1.1-25.2-1.7zm-23 31.1c-2.4 4.5-1.7 4.2-1.2 9.1.5 4.6-.5 4.9 2 8.2 1.9-2.6 3.3-3.2 6-3.4v19.2c0 1.1.1 3 .1 4.8 0 3.8-1.2 5.7-4.3 8.2 1.3.8 2.7 1.5 4.2 1.7 0 2.3-.2 4.5.1 6.8l25.5.6v3.7H20.5l-.1-75.3c0-2.5 1.5-4.3 3-6.3-3-.9-4.8-2.3-8.9-1.3l.1-7.7 15.8-.1v24.4c-2.4-.4-3.9-.9-6.2-3.2-2.5 4.1-2.4 6.3-.7 10.6zm23.1-28c4.8-.5 11.6-.4 16.5-.2 3.5.2 10.4 1.7 11.9 4.3-5.4-.4-5.8-1.6-10.9.9-4-2.5-8.8-1.3-13.3-.6 1 1.4 5.1 4.9 5.3 6.1.4 2 .1 8.8.1 11.3l-9.6.2c-.1-2.9-.4-20.6 0-22zm-29.4 90h42V96.1h4l.3 3.9c.6-1.1.2-2.6.6-3.9l4.5-.4v13.4c5.2 0 16 1.2 19.8-1.8.6 5.7-3 5.5-5.6 6.4 4.9 0 8.2-.2 12 3 3.1 2.5 4.2 6.6 4.3 10.4.2 8.5-6 13.3-14.1 15.5-15 4.1-27.7-2.2-40.3-2.4-5.9-.1-7.5.8-12.7 2.4.7-2.3 1.6-3.3 2.6-5.2l-2.9.8c.7-3.1 3-6.6 5.8-8.3 3.6-2.2 8.4-2.3 12.6-2 9.4.8 31.7 7.3 37.1.7 2.5-3.1 1.4-7.7-2.1-9.7-2.7-1.6-8.3-2.3-11.5-3-4.1-1-8.2-.7-9.6-4.7-1.7 4.5-4.9 3.6-11.1 3.6H23.3c-4.4 0-9.3 1-10.9-3.6-1.2 3.2-3.3 3.8-6.7 3.5 1.8-2.4 1.9-3.2 2-9.5L7.9 36c0-7 .2-7.3-2-10.1 5.6-.5 6 2.2 6.8 3.5.5-2.3 2.8-4 6.2-3.5-1.3 1.2-1.4 1.7-1.7 3.3-.3 1.8 0 77.4 0 80zm51.4-26.4l-3.8.7c.4-14.4.4-29.6-.9-43.9-1.5 3.8-1.2 37.8-1.1 44h-3.4l.1-51.8c0-4-.3-2.9-1.9-5.8 3.5-.6 5.4.3 6.6 3.4.9-2.6 3.8-4.5 6.5-3.2-.8 1.7-2 .9-2 5.4-.1 6.5.3 49.2-.1 51.2zm28.6-57h11c4.3 0 4.9.4 6.8 3.8 1.5-2.9 2.6-4.2 6.5-3.6-1 1.6-1.9 2.2-2 4.3-.1 1.8 0 3.9 0 5.7l.1 34.5c0 7.7 0 15.4.1 23.1l.1 17.4c.2 2.1 1.1 2.3 2 3.8-3.4.3-5.6 0-6.7-3.3-1.6 3.3-2.6 3.7-6.8 3.3.7-1.2 1.8-1.9 2-3.5l.2-58.6c0-2.7.2-20.2-.1-21.3H96.3l.9-5.6zM72 37.5c-.1-1.4-.3-7.1.1-8.1.3-.7 3.5-3.9 4.3-4.5 1.7 3.1 2.2 4.1.4 7.5-.8 1.3-3.3 5-4.8 5.1zm25.4-3.1l9.7.1v3.6H96.5l.9-3.7zM84.5 44.8c.9-1.1 4.4-2.4 7.6-6.6-.3 2.5-3.3 5.7-4.9 7.6l-2.7-1zm-28.8-.6v6.1c-6.7-.2-17.7-.1-24.5.9-4.9.7-4.7 1.1-6 2.3-.2-4.1.6-4.6 4.1-6.3-2.7-1.6-5-2.4-4-6.3 2.4 1.7 2.8 1.9 6 2.3 2.5.4 5.3.6 7.8.8 5.6.4 11 .5 16.6.2zm34.2 3c1.8-1.5 3.4-4 4.5-6.1H107c.3 4.1 0 35.4 0 40.5v20.2c0 5.5 1.6 10.8-4.5 13.9 1.8 1.1 2.3 1.4 4.4 2.1v6.9h3.2c-.9 3.4-5.3 10.6-8 12.7.4-4.9.8-12.2-.9-16.8-1.8-4.9-4.9-7-9.7-9 .8-2.7.2-5.4-1.9-9-2.7 4.5-2.7 3.6-17.5 3.6v-4.6c12.3-1.5 24.2-8.7 27.9-19.9 1.3-4.1.7-6.6 1-10.6.4-7.4.3-11.7-4.6-18.1-2.7-3.5-5.6-4.7-6.5-5.8zm-43.4 6.1h9.3v3.6h-9.3v-3.6zm-21.1 6.8c-.3-2.9 1.9-5.3 4.9-5.5 0 4.8.4 3-2.7 4.2-.8.3-1.4.9-2.2 1.3zM72.5 55c3.8.8 8.7 4.5 9.1 8.3-1.6-1.9-6.4-4.4-9.1-4.9V55zM72 81.9l-.1-20.5c4.3.8 11.2 5.5 9.9 10.2-1.1 4.2-5.2 9.1-9.8 10.3zm0 16.6c0-6.9-.8-.9 14-8 6.1-2.9 7.5-5.9 10.3-8.3-1.1 4.2-5.7 8.4-9.1 10.8-4.1 2.7-10.3 4.8-15.2 5.5zM46.5 82.9c0-3.4-.4-21.2.2-23H56c.4 1.4.1 20.7.1 23.8l-7.6-.2c-.1 0-1.1-.1-1.1-.1-1.2-.2-.4-.1-.9-.5zM33.7 95.4c2.8-.6 2.2-.3 4.7-1.7 5.9 2.7 10.4 1.6 17.6 2.1v3.5L33.7 99v-3.6zM7.8 121.6c0-4.2-.2-3.5 1-3.8 1.4-.3 2.4-.5 3.6-1.6 2.1 1 2.3 1.6 5.1 1.7 5.1.2 15.2 0 20.6 0h13.8c4.3 0 8.6.7 12-1.7 8.6 4.9 21.7 1.8 21.2 9.2-4.2-1.4-7.2-1.8-11.3-2.8-1.9-.5-3.9-.8-5.8-1.3-2.3-.6-3.3-1.2-3.9-3.4l-.6 1.1c-1.7 3.2-6.8 2.4-10.6 2.4h-30c-5 .2-10.1.1-15.1.2zm102.5-3.6c1.8-.3 3.3-.5 4.6-1.7 1.2 1 1.9 1.3 4.8 1.7l.1 3.7-9.5-.1V118zm-94 6.5c12 .2 24.9.1 37.1.1 5.2 0 6.2.6 10.7-1.7 4 2.5 13.5 3.5 18.6 5-.2.2.2.4-1.8.7-.7.1-1.4.1-2.1.2-7.2.2-19.9-2.8-29.8-3.1-5.3-.2-10.9.3-15.3 3.4-1.5 1.1-3.4 3.1-4.4 4.7-1.8 2.8-2.1 5.2-2.6 6.1-3.6-3.1-9.3-10.6-10.4-15.4zm19.5 22.6c-.3-.2-.5-.4-.7-.5l-.8-.7c11.4-4.6 21.8-.2 33.3 1 9.8 1.1 23.5-.3 30.1-7.4-1.3 3.8-6.4 6.9-10.3 8.3-5.3 1.9-11.4 2.4-17.1 1.9-8.6-.7-17.5-3.5-25.5-3.6-3.7-.1-5.5.5-9 1zm-.5-10.1c8-2 9.4-2.2 18.7-.8 11.6 1.7 24.9 5.5 35.1-1 1.8-1.2 4.1-3.1 5.1-5 1.7-2.9 1-4.9-.4-7.5.4 5.6-2.2 8.8-8 11.1-5.7 2.2-11.9 1.9-17.9 1.1-7.5-1-29.3-7-32.6 2.1zm80.1-37.8c1.5-3.3 1.5-55.6 0-59.2-1.5 3.6-1.6 56 0 59.2zM12.3 101c1.6-21.1 1.2-40.8 0-61.9-1.1 4.8-1.3 25.1-1.3 31 .1 9.5 0 21.5 1.3 30.9zm73-46.9c1.7 2.2 3.7 2.9 5.3 7.5 1.2 3.5 1.1 7.1.1 10.6-.9 3-2.4 5.6-4.4 8-3.2 3.8-4.3 3.9-6.5 6.1 5.4-2 11.6-8.8 13.2-14.1 1.9-6.8-1.4-15-7.7-18.1zm-2.1-18.5c3.3-1.7 7.5-10.8 4.4-17.7-2.3-5.2-9-9.7-15.2-10.2 1.1.6 2.8 1.1 4.1 1.7 3.8 1.9 7.4 4.7 9.2 8.5 3.4 7 1 11.7-2.5 17.7zM31.3 45c.6 1.9 1.2 2.1 2.3 2.5-1.2.3-2 .8-2.3 2.3 6.1-2.4 13.8-1.7 20.2-2.5-9.6-.9-10 .6-20.2-2.3zm8.9 104.9c8-2.3 24.1 3.9 37 3 1.8-.1 3.8-.5 5.5-.6-1.6 1.5-17.3 10.3-19.5 11.1-3.1-1.5-21.9-11.8-23-13.5z"/></symbol><symbol viewBox="0 0 512 512" id="logo_ig" xmlns="http://www.w3.org/2000/svg"><path d="M256 49.5c67.3 0 75.2.3 101.8 1.5 24.6 1.1 37.9 5.2 46.8 8.7 11.8 4.6 20.2 10 29 18.8s14.3 17.2 18.8 29c3.4 8.9 7.6 22.2 8.7 46.8 1.2 26.6 1.5 34.5 1.5 101.8s-.3 75.2-1.5 101.8c-1.1 24.6-5.2 37.9-8.7 46.8-4.6 11.8-10 20.2-18.8 29s-17.2 14.3-29 18.8c-8.9 3.4-22.2 7.6-46.8 8.7-26.6 1.2-34.5 1.5-101.8 1.5s-75.2-.3-101.8-1.5c-24.6-1.1-37.9-5.2-46.8-8.7-11.8-4.6-20.2-10-29-18.8s-14.3-17.2-18.8-29c-3.4-8.9-7.6-22.2-8.7-46.8-1.2-26.6-1.5-34.5-1.5-101.8s.3-75.2 1.5-101.8c1.1-24.6 5.2-37.9 8.7-46.8 4.6-11.8 10-20.2 18.8-29s17.2-14.3 29-18.8c8.9-3.4 22.2-7.6 46.8-8.7 26.6-1.3 34.5-1.5 101.8-1.5m0-45.4c-68.4 0-77 .3-103.9 1.5C125.3 6.8 107 11.1 91 17.3c-16.6 6.4-30.6 15.1-44.6 29.1-14 14-22.6 28.1-29.1 44.6-6.2 16-10.5 34.3-11.7 61.2C4.4 179 4.1 187.6 4.1 256s.3 77 1.5 103.9c1.2 26.8 5.5 45.1 11.7 61.2 6.4 16.6 15.1 30.6 29.1 44.6 14 14 28.1 22.6 44.6 29.1 16 6.2 34.3 10.5 61.2 11.7 26.9 1.2 35.4 1.5 103.9 1.5s77-.3 103.9-1.5c26.8-1.2 45.1-5.5 61.2-11.7 16.6-6.4 30.6-15.1 44.6-29.1 14-14 22.6-28.1 29.1-44.6 6.2-16 10.5-34.3 11.7-61.2 1.2-26.9 1.5-35.4 1.5-103.9s-.3-77-1.5-103.9c-1.2-26.8-5.5-45.1-11.7-61.2-6.4-16.6-15.1-30.6-29.1-44.6-14-14-28.1-22.6-44.6-29.1-16-6.2-34.3-10.5-61.2-11.7-27-1.1-35.6-1.4-104-1.4z"/><path d="M256 126.6c-71.4 0-129.4 57.9-129.4 129.4s58 129.4 129.4 129.4 129.4-58 129.4-129.4-58-129.4-129.4-129.4zm0 213.4c-46.4 0-84-37.6-84-84s37.6-84 84-84 84 37.6 84 84-37.6 84-84 84z"/><circle cx="390.5" cy="121.5" r="30.2"/></symbol><symbol id="logo_menu" viewBox="0 0 379.1 170.3" xmlns="http://www.w3.org/2000/svg"><style>.kst0{fill:#0060aa}</style><path class="kst0" d="M63.1 168.2c5.4-1.9 26-14.6 30.2-17.7 4.8-3.5 8.9-6.8 12.7-11 3.5-3.8 7.8-10 8.7-14.9h8.2v-6.9c2-.5 2.3-.5 4.4-2.1-2.2-1.7-4.4-2.2-4.4-6.3l-.1-76.9c0-3.7-.2-4.9 3.8-8-3-1-5.6-1.9-9-1.5l-.2-10.9H94c-.7-.4-3.3-3.7-4.7-4.7-6.8-5-14-6.4-22.8-6.8-5.9-.5-16 .1-22.5.3-3.8.1-4.6.8-5.9 1.9-2-2.6-8.8-1.5-12.4-1 3.9 3.5 4.7 5.2 4.7 10.3H9.7l-.1 10.8c-3.8-.1-6.1.3-9.1 2.1 3 1.5 4.2 3.1 4.1 7.2v12.1c0 8.7 0 17.3-.1 26l-.1 38.6c0 2.6-1.8 5.5-4.5 6.7 1.9 1.2 2.3 1.4 4.5 2.2l-.1 6.9h7.2c4.4 16 22.1 26.9 36.1 35.1 2.2 1.3 14.1 8 15.5 8.5M38.4 7c1.2-2 1.8-2.8 4.4-3.1 2.2-.2 5-.2 7.3-.3 4.9-.2 10.1-.3 15-.1 8 .3 17.1 1.5 23 7 8.6 8 6.8 23-2.8 29.9-2.5 1.8-4.6 2.8-7.5 3.7-1.3.4-2 .1-2.3 1.2.5.9 2.1.8 3.2 1.1 24.6 5.8 21.4 28.7 12.7 36.2-3.6 3.1-5.4 4.7-10 6.6-9.5 4-20.1 3.8-30.3 3.5-2.5-.1-5.4-.1-7.9-.4-3.2-.4-3.4-1-4.9-3.3-.9 1.2-.8 1.9-2.3 2.6-1.4.7-2.7.8-4.2.6 1-1.3 1.4-2 1.7-3.2.5-2.2-.1-33.8.1-34.3.7-.7 2.8-.6 3.9-.5 0 4.3.2 8.6.4 12.9.2 3.3.2 9.1 1 12.2l1-25.3 3.2.1V86c6 1 16.2 1.5 22.3.9 24.2-2.3 27.2-30.2 6.9-35.1V41.6c2-1.7 3.8-2.7 5.4-4.7 5.4-6.6 4.8-16.2 0-21.7-3.3-3.7-9.3-5.5-14.5-5.7-6.7-.3-13.3-.1-20 .5v31l-3.2-.3-1.2-23.5c-1 7.1-1.1 16-1.2 23.4l-3.8-.4c-.2-9.2-.1-19.3-.1-28.7 0-4.7.4-4-2.2-7.6 4.5-.1 4.7.1 6.9 3.1zm58.5 15.5c-.2-2.9-.6-4.4-1.3-7 1.9-.2 15.9-.3 17.1.1l.1 7.4c-5-.8-13.6.1-15.9-.5zm-50.4-6.4c-.1-3.9-.2-3.5 1.4-3.6 3.8-.2 13.5-.3 16.7.1 5.3.6 11.8 3.3 12.8 8.7-2-1.3-3-2.5-5.7-3.5-8.8-3.4-19.6-1.1-25.2-1.7zm-23 31.1c-2.4 4.5-1.7 4.2-1.2 9.1.5 4.6-.5 4.9 2 8.2 1.9-2.6 3.3-3.2 6-3.4v19.2c0 1.1.1 3 .1 4.8 0 3.8-1.2 5.7-4.3 8.2 1.3.8 2.7 1.5 4.2 1.7 0 2.3-.2 4.5.1 6.8l25.5.6v3.7H20.5l-.1-75.3c0-2.5 1.5-4.3 3-6.3-3-.9-4.8-2.3-8.9-1.3l.1-7.7 15.8-.1v24.4c-2.4-.4-3.9-.9-6.2-3.2-2.5 4.1-2.4 6.3-.7 10.6zm23.1-28c4.8-.5 11.6-.4 16.5-.2 3.5.2 10.4 1.7 11.9 4.3-5.4-.4-5.8-1.6-10.9.9-4-2.5-8.8-1.3-13.3-.6 1 1.4 5.1 4.9 5.3 6.1.4 2 .1 8.8.1 11.3l-9.6.2c-.1-2.9-.4-20.6 0-22zm-29.4 90h42V96.1h4l.3 3.9c.6-1.1.2-2.6.6-3.9l4.5-.4v13.4c5.2 0 16 1.2 19.8-1.8.6 5.7-3 5.5-5.6 6.4 4.9 0 8.2-.2 12 3 3.1 2.5 4.2 6.6 4.3 10.4.2 8.5-6 13.3-14.1 15.5-15 4.1-27.7-2.2-40.3-2.4-5.9-.1-7.5.8-12.7 2.4.7-2.3 1.6-3.3 2.6-5.2l-2.9.8c.7-3.1 3-6.6 5.8-8.3 3.6-2.2 8.4-2.3 12.6-2 9.4.8 31.7 7.3 37.1.7 2.5-3.1 1.4-7.7-2.1-9.7-2.7-1.6-8.3-2.3-11.5-3-4.1-1-8.2-.7-9.6-4.7-1.7 4.5-4.9 3.6-11.1 3.6H23.3c-4.4 0-9.3 1-10.9-3.6-1.2 3.2-3.3 3.8-6.7 3.5 1.8-2.4 1.9-3.2 2-9.5L7.9 36c0-7 .2-7.3-2-10.1 5.6-.5 6 2.2 6.8 3.5.5-2.3 2.8-4 6.2-3.5-1.3 1.2-1.4 1.7-1.7 3.3-.3 1.8 0 77.4 0 80zm51.4-26.4l-3.8.7c.4-14.4.4-29.6-.9-43.9-1.5 3.8-1.2 37.8-1.1 44h-3.4l.1-51.8c0-4-.3-2.9-1.9-5.8 3.5-.6 5.4.3 6.6 3.4.9-2.6 3.8-4.5 6.5-3.2-.8 1.7-2 .9-2 5.4-.1 6.5.3 49.2-.1 51.2zm28.6-57h11c4.3 0 4.9.4 6.8 3.8 1.5-2.9 2.6-4.2 6.5-3.6-1 1.6-1.9 2.2-2 4.3-.1 1.8 0 3.9 0 5.7l.1 34.5c0 7.7 0 15.4.1 23.1l.1 17.4c.2 2.1 1.1 2.3 2 3.8-3.4.3-5.6 0-6.7-3.3-1.6 3.3-2.6 3.7-6.8 3.3.7-1.2 1.8-1.9 2-3.5l.2-58.6c0-2.7.2-20.2-.1-21.3H96.3l.9-5.6zM72 37.5c-.1-1.4-.3-7.1.1-8.1.3-.7 3.5-3.9 4.3-4.5 1.7 3.1 2.2 4.1.4 7.5-.8 1.3-3.3 5-4.8 5.1zm25.4-3.1l9.7.1v3.6H96.5l.9-3.7zM84.5 44.8c.9-1.1 4.4-2.4 7.6-6.6-.3 2.5-3.3 5.7-4.9 7.6l-2.7-1zm-28.8-.6v6.1c-6.7-.2-17.7-.1-24.5.9-4.9.7-4.7 1.1-6 2.3-.2-4.1.6-4.6 4.1-6.3-2.7-1.6-5-2.4-4-6.3 2.4 1.7 2.8 1.9 6 2.3 2.5.4 5.3.6 7.8.8 5.6.4 11 .5 16.6.2zm34.2 3c1.8-1.5 3.4-4 4.5-6.1H107c.3 4.1 0 35.4 0 40.5v20.2c0 5.5 1.6 10.8-4.5 13.9 1.8 1.1 2.3 1.4 4.4 2.1v6.9h3.2c-.9 3.4-5.3 10.6-8 12.7.4-4.9.8-12.2-.9-16.8-1.8-4.9-4.9-7-9.7-9 .8-2.7.2-5.4-1.9-9-2.7 4.5-2.7 3.6-17.5 3.6v-4.6c12.3-1.5 24.2-8.7 27.9-19.9 1.3-4.1.7-6.6 1-10.6.4-7.4.3-11.7-4.6-18.1-2.7-3.5-5.6-4.7-6.5-5.8zm-43.4 6.1h9.3v3.6h-9.3v-3.6zm-21.1 6.8c-.3-2.9 1.9-5.3 4.9-5.5 0 4.8.4 3-2.7 4.2-.8.3-1.4.9-2.2 1.3zM72.5 55c3.8.8 8.7 4.5 9.1 8.3-1.6-1.9-6.4-4.4-9.1-4.9V55zM72 81.9l-.1-20.5c4.3.8 11.2 5.5 9.9 10.2-1.1 4.2-5.2 9.1-9.8 10.3zm0 16.6c0-6.9-.8-.9 14-8 6.1-2.9 7.5-5.9 10.3-8.3-1.1 4.2-5.7 8.4-9.1 10.8-4.1 2.7-10.3 4.8-15.2 5.5zM46.5 82.9c0-3.4-.4-21.2.2-23H56c.4 1.4.1 20.7.1 23.8l-7.6-.2c-.1 0-1.1-.1-1.1-.1-1.2-.2-.4-.1-.9-.5zM33.7 95.4c2.8-.6 2.2-.3 4.7-1.7 5.9 2.7 10.4 1.6 17.6 2.1v3.5L33.7 99v-3.6zM7.8 121.6c0-4.2-.2-3.5 1-3.8 1.4-.3 2.4-.5 3.6-1.6 2.1 1 2.3 1.6 5.1 1.7 5.1.2 15.2 0 20.6 0h13.8c4.3 0 8.6.7 12-1.7 8.6 4.9 21.7 1.8 21.2 9.2-4.2-1.4-7.2-1.8-11.3-2.8-1.9-.5-3.9-.8-5.8-1.3-2.3-.6-3.3-1.2-3.9-3.4l-.6 1.1c-1.7 3.2-6.8 2.4-10.6 2.4h-30c-5 .2-10.1.1-15.1.2zm102.5-3.6c1.8-.3 3.3-.5 4.6-1.7 1.2 1 1.9 1.3 4.8 1.7l.1 3.7-9.5-.1V118zm-94 6.5c12 .2 24.9.1 37.1.1 5.2 0 6.2.6 10.7-1.7 4 2.5 13.5 3.5 18.6 5-.2.2.2.4-1.8.7-.7.1-1.4.1-2.1.2-7.2.2-19.9-2.8-29.8-3.1-5.3-.2-10.9.3-15.3 3.4-1.5 1.1-3.4 3.1-4.4 4.7-1.8 2.8-2.1 5.2-2.6 6.1-3.6-3.1-9.3-10.6-10.4-15.4zm19.5 22.6c-.3-.2-.5-.4-.7-.5l-.8-.7c11.4-4.6 21.8-.2 33.3 1 9.8 1.1 23.5-.3 30.1-7.4-1.3 3.8-6.4 6.9-10.3 8.3-5.3 1.9-11.4 2.4-17.1 1.9-8.6-.7-17.5-3.5-25.5-3.6-3.7-.1-5.5.5-9 1zm-.5-10.1c8-2 9.4-2.2 18.7-.8 11.6 1.7 24.9 5.5 35.1-1 1.8-1.2 4.1-3.1 5.1-5 1.7-2.9 1-4.9-.4-7.5.4 5.6-2.2 8.8-8 11.1-5.7 2.2-11.9 1.9-17.9 1.1-7.5-1-29.3-7-32.6 2.1zm80.1-37.8c1.5-3.3 1.5-55.6 0-59.2-1.5 3.6-1.6 56 0 59.2zM12.3 101c1.6-21.1 1.2-40.8 0-61.9-1.1 4.8-1.3 25.1-1.3 31 .1 9.5 0 21.5 1.3 30.9zm73-46.9c1.7 2.2 3.7 2.9 5.3 7.5 1.2 3.5 1.1 7.1.1 10.6-.9 3-2.4 5.6-4.4 8-3.2 3.8-4.3 3.9-6.5 6.1 5.4-2 11.6-8.8 13.2-14.1 1.9-6.8-1.4-15-7.7-18.1zm-2.1-18.5c3.3-1.7 7.5-10.8 4.4-17.7-2.3-5.2-9-9.7-15.2-10.2 1.1.6 2.8 1.1 4.1 1.7 3.8 1.9 7.4 4.7 9.2 8.5 3.4 7 1 11.7-2.5 17.7zM31.3 45c.6 1.9 1.2 2.1 2.3 2.5-1.2.3-2 .8-2.3 2.3 6.1-2.4 13.8-1.7 20.2-2.5-9.6-.9-10 .6-20.2-2.3zm8.9 104.9c8-2.3 24.1 3.9 37 3 1.8-.1 3.8-.5 5.5-.6-1.6 1.5-17.3 10.3-19.5 11.1-3.1-1.5-21.9-11.8-23-13.5zM275.7 32.5V21.7h2.3c3.7 0 5.5 2.1 5.5 4.9 0 3.6-1.8 5.9-5.9 5.9h-1.9zm-5.5 13.8h5.8s-.2-1.9-.2-3.8v-6.2h2.7c6.8 0 10.9-4.5 10.9-9.9 0-4.4-3.6-8.5-10.6-8.5h-8.7s.2 2.1.2 4.1v24.3zm-18.6 0h5.8s-.2-1.9-.2-3.8V21.8h4.8c1.9 0 3.2.2 3.2.2l.2-4h-21.8l-.2 4s1.9-.3 3.5-.3l4.7.1v24.5zm-36.9 0h5.8s-.2-1.9-.2-3.8v-9H233v12.7h5.8s-.2-1.9-.2-3.8V17.7l-5.8.2s.2 2.1.2 4.2v7.6h-12.7v-12l-5.8.2s.2 2.1.2 4.2v24.2zm-24.2 0h17.9l.2-4s-1.8.2-4.2.2l-8.3.1v-8.7l10.3.3.2-4.3-10.5.2v-8.5l8.9.1c1.9 0 3.4.2 3.4.2l.2-4h-18.3s.2 2.1.2 4.1v24.3zm-10.3 8.3l4.7-.2s-.2-1.9-.2-3.6v-8.3h-3V17.7l-5.8.2s.2 2.1.2 4.2v20.4h-11.9V17.7l-5.8.2s.2 2.1.2 4.2v24.2h21.2l.4 8.3zM365 82.5c9.1 0 13.5-6.2 13.5-15.1 0-7.2-4.3-14-12.6-14-9.1 0-13.5 6.2-13.5 15.1 0 7.1 4.3 14 12.6 14m.8-3.7c-5.9 0-7.6-5.5-7.6-11.4 0-6.2 2.1-10.4 7-10.4 5.9 0 7.6 5.5 7.6 11.4 0 6.2-2.1 10.4-7 10.4zm-32.3 3.3h5.8s-.2-1.9-.2-3.8V57.8h6.8c2.7 0 4.3.3 4.3.3l.2-4.4h-17.1s.2 2.1.2 4.1v24.3zm-19.7.4c9.1 0 13.5-6.2 13.5-15.1 0-7.2-4.3-14-12.6-14-9.1 0-13.5 6.2-13.5 15.1 0 7.1 4.3 14 12.6 14zm.8-3.7c-5.9 0-7.6-5.5-7.6-11.4 0-6.2 2.1-10.4 7-10.4 5.9 0 7.6 5.5 7.6 11.4-.1 6.2-2.1 10.4-7 10.4zm-43.5 3.3h5.8s-.2-1.9-.2-3.8v-9h12.7V82h5.8s-.2-1.9-.2-3.8V53.5l-5.8.2s.2 2.1.2 4.2v7.6h-12.7v-12l-5.8.2s.2 2.1.2 4.2v24.2zm-31.6 0h5.8s-.2-1.9-.2-3.8v-9h12.7V82h5.8s-.2-1.9-.2-3.8V53.5l-5.8.2s.2 2.1.2 4.2v7.6h-12.7v-12l-5.8.2s.2 2.1.2 4.2v24.2zm-24.2 0h17.9l.2-4s-1.8.2-4.2.2l-8.3.1v-8.7l10.3.3.2-4.3-10.5.2v-8.5l8.9.1c1.9 0 3.4.2 3.4.2l.2-4h-18.3s.2 2.1.2 4.1v24.3zm-19.7.4c9.1 0 13.5-6.2 13.5-15.1 0-7.2-4.3-14-12.6-14-9.1 0-13.5 6.2-13.5 15.1 0 7.1 4.3 14 12.6 14zm.8-3.7c-5.9 0-7.6-5.5-7.6-11.4 0-6.2 2.1-10.4 7-10.4 5.9 0 7.6 5.5 7.6 11.4 0 6.2-2.1 10.4-7 10.4zm-32.2-13.4v-8h3.1c3.5 0 4.7 1.9 4.7 4.1 0 2.5-1.9 3.9-1.9 3.9h-5.9zm0 13V69h3.9c3.5 0 4.9 2.2 4.9 4.8 0 2.9-1.8 4.6-4.9 4.6h-3.9zm-5.5 3.7h9.4c5.7 0 10.5-2.9 10.5-8.3 0-3.5-2.2-5.8-6-6.6V67c2.8-.8 4.8-2.6 4.8-6.2 0-4.2-3.6-7.1-9.7-7.1h-9.3s.2 2.1.2 4.1v24.3zM270.9 98.5c.4-1.2.6-2.5.6-2.5h.2s.2 1.2.6 2.5l3.5 9.7h-8.2l3.3-9.7zm8.6 19.6l5.8-.2s-.9-1.8-2-4.8l-8.7-23.6-4.4.2-7.6 21c-1 2.7-1.7 4.7-2 7.2h4.3c.3-1.9.8-3.6 1.5-6h10.8l2.3 6.2zm-36.4-16.9v-8h3.1c3.5 0 4.7 1.9 4.7 4.1 0 2.5-1.9 3.9-1.9 3.9h-5.9zm0 13.1v-9.4h3.9c3.5 0 4.9 2.2 4.9 4.8 0 2.9-1.8 4.6-4.9 4.6h-3.9zm-5.5 3.6h9.4c5.7 0 10.5-2.9 10.5-8.3 0-3.5-2.2-5.8-6-6.6v-.2c2.8-.8 4.8-2.6 4.8-6.2 0-4.2-3.6-7.1-9.7-7.1h-9.3s.2 2.1.2 4.1v24.3zm-18.3-19.4c.4-1.2.6-2.5.6-2.5h.2s.2 1.2.6 2.5l3.5 9.7H216l3.3-9.7zm8.5 19.6l5.8-.2s-.9-1.8-2-4.8l-8.7-23.6-4.4.2-7.6 21c-1 2.7-1.7 4.7-2 7.2h4.3c.3-1.9.8-3.6 1.5-6h10.8l2.3 6.2zm-33.1-13.9V93.3h2.3c3.7 0 5.5 2.1 5.5 4.9 0 3.6-1.8 5.9-5.9 5.9h-1.9zm-5.6 13.7h5.8s-.2-1.9-.2-3.8v-6.2h2.7c6.8 0 10.9-4.5 10.9-9.9 0-4.4-3.6-8.5-10.6-8.5H189s.2 2.1.2 4.1v24.3zm-30.4 0h5.8s-.2-1.9-.2-3.8V93.4h11.5v24.5h5.8s-.2-1.9-.2-3.8V89.6h-22.9s.2 2.1.2 4.2v24.1z"/></symbol><symbol id="logo_rechi" viewBox="0 0 472.1 389.6" xmlns="http://www.w3.org/2000/svg"><style>.lst0{fill-rule:evenodd;clip-rule:evenodd}</style><path class="lst0" d="M80.1 77h77.1V0H80.1v77zM0 0h77.1v77.1L0 0zM159.7 77h77.1V0h-77.1v77zM239.1 77h77.1V0h-77.1v77zM317.9 0L395 77.1h-77.1V0zM317.9 156.2H395v-77h-77.1v77zM240.9 235H318v-77h-77.1v77zM317.9 312.5H395v-77.1h-77.1v77.1zM395 312.5h77.1v77.1H395v-77.1zM80.1 391h77.1v-77H80.1v77zM1.2 314h77.1v77L1.2 314zM157.2 313.9h77.1v-77h-77.1v77zM1.2 312h77.1v-77H1.2v77zM1.2 233.2h77.1v-77.1H1.2v77.1z"/></symbol><symbol id="logo_vk" viewBox="0 0 129 76" xmlns="http://www.w3.org/2000/svg"><style>.mst0{fill:#231f20}</style><path class="mst0" d="M125.2 5.1c.9-3 0-5.1-4.2-5.1h-14c-3.6 0-5.2 1.9-6.1 4 0 0-7.1 17.4-17.2 28.6-3.3 3.3-4.7 4.3-6.5 4.3-.9 0-2.2-1-2.2-4V5.1C75 1.6 74 0 71 0H49c-2.2 0-3.6 1.7-3.6 3.2 0 3.4 5 4.2 5.6 13.6v20.6c0 4.5-.8 5.3-2.6 5.3-4.7 0-16.3-17.4-23.1-37.4C23.9 1.6 22.6 0 19 0H5C1 0 .2 1.9.2 4c0 3.7 4.7 22.1 22.1 46.4C33.9 67 50.2 76 65 76c8.9 0 10-2 10-5.4V58c0-4 .8-4.8 3.7-4.8 2.1 0 5.6 1 13.9 9C102.1 71.7 103.7 76 109 76h14c4 0 6-2 4.8-5.9-1.3-3.9-5.8-9.6-11.8-16.4-3.3-3.9-8.2-8-9.6-10.1-2.1-2.7-1.5-3.9 0-6.2 0-.1 17.1-24.1 18.8-32.3z"/></symbol><symbol id="logo_youtube" viewBox="0 0 179 126.5" xmlns="http://www.w3.org/2000/svg"><style>.nst0{fill:#282828}</style><path class="nst0" d="M173.8 20.6c-2-7.6-8-13.6-15.6-15.7-13.7-3.7-68.8-3.7-68.8-3.7s-55 0-68.8 3.7C13.2 7 7.2 13 5.2 20.6 1.5 34.4 1.5 63.2 1.5 63.2s0 28.8 3.7 42.6c2 7.6 8 13.6 15.6 15.7 13.7 3.7 68.8 3.7 68.8 3.7s55 0 68.8-3.7c7.6-2 13.5-8 15.6-15.7 3.7-13.8 3.7-42.6 3.7-42.6s-.2-28.8-3.9-42.6zM71.5 89.4V37.1l46 26.2-46 26.1z"/></symbol><symbol id="quote" viewBox="0 0 1150.3 116.3" xmlns="http://www.w3.org/2000/svg"><style>.ost0{fill:none;stroke:#b3b9c8;stroke-miterlimit:10}</style><path class="ost0" d="M.9 4.3v86.6h1044.3l26.7 23.4V90.9h76V4.3"/></symbol><symbol viewBox="0 0 51.9 51.9" id="zoom" xmlns="http://www.w3.org/2000/svg"><circle fill="#FFF" cx="26" cy="26" r="26"/><path fill="#0060AA" d="M38.8 37.8c.3.3.3.7 0 1s-.7.3-1 0L30 31c-.1-.1-.4-.2-.5 0l-.3.3c-1.7 1.3-3.8 2-6.1 2-5.6 0-10.2-4.6-10.2-10.2s4.6-10.2 10.2-10.2 10.2 4.6 10.2 10.2c0 2.2-.7 4.3-1.9 5.9-.2.3-.3.4-.3.4-.1.2-.1.4 0 .5l7.7 7.9zm-15.7-6c4.8 0 8.7-3.9 8.7-8.7s-3.9-8.7-8.7-8.7-8.7 3.9-8.7 8.7 3.8 8.7 8.7 8.7zm1-9.5h3.3c.4 0 .7.3.7.7 0 .4-.3.7-.7.7h-3.3c-.2 0-.4.2-.4.4v3.3c0 .4-.3.7-.7.7-.4 0-.7-.3-.7-.7v-3.3c0-.2-.2-.4-.4-.4h-3.3c-.4 0-.7-.3-.7-.7 0-.4.3-.7.7-.7H22c.2 0 .4-.2.4-.4v-3.3c0-.4.3-.7.7-.7.4 0 .7.3.7.7V22c0 .2.1.3.3.3z"/></symbol></svg>