<?xml version="1.0" encoding="utf-8"?>
<!-- Generator: Adobe Illustrator 22.1.0, SVG Export Plug-In . SVG Version: 6.00 Build 0)  -->
<svg version="1.1" id="Слой_1" xmlns="http://www.w3.org/2000/svg" xmlns:xlink="http://www.w3.org/1999/xlink" x="0px" y="0px"
	 viewBox="0 0 83.1 95.3" style="enable-background:new 0 0 83.1 95.3;" xml:space="preserve">
<style type="text/css">
	.st0{fill:#FFFFFF;stroke:#0563AB;stroke-width:1.4899;stroke-miterlimit:10;}
	.st1{fill:#FFFFFF;stroke:#0563AB;stroke-width:1.9866;stroke-miterlimit:10;}
	.st2{fill:none;stroke:#0563AB;stroke-width:1.9866;stroke-miterlimit:10;}
	.st3{fill:#FFFFFF;stroke:#FBB715;stroke-width:1.9866;stroke-miterlimit:10;}
	.st4{fill:#FFFFFF;stroke:#0563AB;stroke-width:0.9933;stroke-linecap:round;stroke-linejoin:round;stroke-miterlimit:10;}
	.st5{fill:none;stroke:#FBB715;stroke-width:1.9866;stroke-miterlimit:10;}
</style>
<g>
	<path class="st0" d="M62.3,2.5c0,0,53.6,43.7-21,90.8c-74.6-47.1-21-90.8-21-90.8S41.3,9.8,62.3,2.5z"/>
	<rect x="22.7" y="19.8" class="st1" width="36.5" height="42.2"/>
	<line class="st2" x1="29.4" y1="26.8" x2="53" y2="26.8"/>
	<line class="st2" x1="29.4" y1="32" x2="53" y2="32"/>
	<line class="st2" x1="29.4" y1="37.2" x2="53" y2="37.2"/>
	<polyline class="st3" points="35.6,56.6 35.6,68.7 40.9,65.1 46.4,68.7 46.4,56.6 	"/>
	<path class="st3" d="M33.8,52.1c-0.4-0.3-0.7-0.8-0.7-1.3s0.2-1,0.7-1.3c1-0.6,1.4-1.8,1.2-2.9c-0.1-0.5,0-1,0.4-1.4
		s0.9-0.5,1.4-0.4c1.1,0.2,2.3-0.2,2.9-1.2c0.3-0.4,0.8-0.7,1.3-0.7s1,0.2,1.3,0.7c0.6,1,1.8,1.4,2.9,1.2c0.5-0.1,1,0,1.4,0.4
		s0.5,0.9,0.4,1.4c-0.2,1.1,0.2,2.3,1.2,2.9c0.4,0.3,0.7,0.8,0.7,1.3s-0.2,1-0.7,1.3c-1,0.6-1.4,1.8-1.2,2.9c0.1,0.5,0,1-0.4,1.4
		s-0.9,0.5-1.4,0.4c-1.1-0.2-2.3,0.2-2.9,1.2c-0.3,0.4-0.8,0.7-1.3,0.7s-1-0.2-1.3-0.7c-0.5-0.8-1.4-1.3-2.3-1.3
		c-0.2,0-0.4,0-0.6,0.1c-0.5,0.1-1,0-1.4-0.4s-0.5-0.9-0.4-1.4C35.3,53.8,34.8,52.7,33.8,52.1z"/>
	<polygon class="st4" points="41,47.1 41.8,49.7 44.5,49.7 42.3,51.3 43.2,53.8 41,52.2 38.8,53.8 39.6,51.3 37.5,49.7 40.2,49.7 	
		"/>
	<line class="st5" x1="41" y1="58.8" x2="41" y2="65.1"/>
</g>
</svg>
