<?xml version="1.0" encoding="utf-8"?>
<!-- Generator: Adobe Illustrator 22.1.0, SVG Export Plug-In . SVG Version: 6.00 Build 0)  -->
<svg version="1.1" id="Слой_1" xmlns="http://www.w3.org/2000/svg" xmlns:xlink="http://www.w3.org/1999/xlink" x="0px" y="0px"
	 viewBox="0 0 93.3 94" style="enable-background:new 0 0 93.3 94;" xml:space="preserve">
<style type="text/css">
	.st0{fill:#FFFFFF;stroke:#0563AB;stroke-width:1.4918;stroke-miterlimit:10;}
	.st1{fill:#FFFFFF;stroke:#0563AB;stroke-width:1.9891;stroke-miterlimit:10;}
	.st2{fill:none;stroke:#0563AB;stroke-width:1.9891;stroke-linecap:round;stroke-linejoin:round;stroke-miterlimit:10;}
	.st3{fill:none;stroke:#FBB715;stroke-width:1.9891;stroke-miterlimit:10;}
</style>
<g>
	<g>
		<path class="st0" d="M90.9,2.1c0,0-5.7,3.6-6.3,17.6c0,0-1.9,23.5-2.4,38.7c0,0-1.1,16.6-8.2,24.5c0,0-6.3,9-26.5,9h-0.7
			c-20.3,0-26.5-9-26.5-9c-7.1-7.8-8.2-24.4-8.2-24.4c-0.5-15.2-2.4-38.7-2.4-38.7C9.1,5.7,3.4,2.2,3.4,2.2L90.9,2.1L90.9,2.1z"/>
	</g>
	<g>
		<rect x="27" y="27.9" class="st1" width="40.4" height="38.8"/>
		<line class="st2" x1="35.3" y1="24.2" x2="35.3" y2="31.2"/>
		<line class="st2" x1="47.3" y1="24.2" x2="47.3" y2="31.2"/>
		<line class="st2" x1="59.4" y1="24.2" x2="59.4" y2="31.2"/>
		<line class="st3" x1="34.3" y1="44.5" x2="40.1" y2="44.5"/>
		<line class="st3" x1="44.4" y1="44.5" x2="50.3" y2="44.5"/>
		<line class="st3" x1="54.5" y1="44.5" x2="60.3" y2="44.5"/>
		<line class="st3" x1="34.3" y1="51.5" x2="40.1" y2="51.5"/>
		<line class="st3" x1="44.4" y1="51.5" x2="50.3" y2="51.5"/>
		<line class="st3" x1="54.5" y1="51.5" x2="60.3" y2="51.5"/>
		<line class="st3" x1="34.3" y1="58.6" x2="40.1" y2="58.6"/>
		<line class="st3" x1="44.4" y1="58.6" x2="50.3" y2="58.6"/>
		<line class="st3" x1="54.5" y1="58.6" x2="60.3" y2="58.6"/>
		<line class="st2" x1="27" y1="37" x2="67.3" y2="37"/>
	</g>
</g>
</svg>
