<?xml version="1.0" encoding="utf-8"?>
<!-- Generator: Adobe Illustrator 22.1.0, SVG Export Plug-In . SVG Version: 6.00 Build 0)  -->
<svg version="1.1" id="Слой_1" xmlns="http://www.w3.org/2000/svg" xmlns:xlink="http://www.w3.org/1999/xlink" x="0px" y="0px"
	 viewBox="0 0 697.3 705" style="enable-background:new 0 0 697.3 705;" xml:space="preserve">
<style type="text/css">
	
		.st0{fill:none;stroke:#221F1F;stroke-width:0.278;stroke-linecap:round;stroke-linejoin:round;stroke-miterlimit:10;stroke-dasharray:3.7491,2.3429;}
	.st1{display:none;fill:#FFFFFF;stroke:#231F20;stroke-miterlimit:10;}
	.st2{display:none;fill:none;stroke:#231F20;stroke-miterlimit:10;}
</style>
<path class="st0" d="M279.9,13.1c-55.3,11.1-105.8,35.2-148.3,69"/>
<path class="st0" d="M39.4,193.7c-26.8,52-39.5,108.8-38.5,165.2"/>
<path class="st0" d="M30.5,494.2c23.9,53.4,60.4,98.7,105,133.1"/>
<path class="st0" d="M259.9,688.7c56.7,14.6,114.9,14.4,169.6,1"/>
<path class="st0" d="M555,630.8c46.8-35.1,82.9-80.8,106.6-131.9"/>
<path class="st0" d="M693.8,364c1.7-58.5-11.4-115.2-36.6-165.6"/>
<path class="st0" d="M571.9,89.1c-44.6-37.8-97.1-62.9-152.3-74.7"/>
<circle class="st1" cx="348.6" cy="353.8" r="313.5"/>
<line class="st2" x1="348.6" y1="166.9" x2="348.6" y2="-32.1"/>
<line class="st2" x1="203.2" y1="235.7" x2="47.7" y2="111.5"/>
<line class="st2" x1="166.3" y1="392.2" x2="-27.8" y2="436.3"/>
<line class="st2" x1="265.6" y1="518.7" x2="179" y2="697.9"/>
<line class="st2" x1="426.4" y1="520" x2="512.4" y2="699.5"/>
<line class="st2" x1="527.7" y1="395.2" x2="721.6" y2="440"/>
<line class="st2" x1="493.4" y1="238.1" x2="649.4" y2="114.5"/>
</svg>
