<?xml version="1.0" encoding="utf-8"?>
<!-- Generator: Adobe Illustrator 22.1.0, SVG Export Plug-In . SVG Version: 6.00 Build 0)  -->
<svg version="1.1" id="Слой_1" xmlns="http://www.w3.org/2000/svg" xmlns:xlink="http://www.w3.org/1999/xlink" x="0px" y="0px"
	 viewBox="0 0 83.3 109.7" style="enable-background:new 0 0 83.3 109.7;" xml:space="preserve">
<style type="text/css">
	
		.st0{opacity:0.15;fill:#D2D8E6;stroke:#0563AB;stroke-width:1.0052;stroke-miterlimit:10;stroke-dasharray:4.0206,2.5129;enable-background:new    ;}
	.st1{fill:#FFFFFF;stroke:#0563AB;stroke-width:1.5077;stroke-miterlimit:10;}
	.st2{fill:none;stroke:#0563AB;stroke-width:1.5077;stroke-miterlimit:10;}
	.st3{fill:#FFFFFF;stroke:#FBB715;stroke-width:2.0103;stroke-miterlimit:10;}
</style>
<g>
	<g>
		<path class="st0" d="M41.7,108.2c-1.6,0-2.9-0.4-3.7-0.8l-0.3-0.1L9.6,92l-0.1-0.1c-6.3-3.7-8.2-10.8-7.9-15.8l5-62.6
			C6.8,6.3,12.6,2,18.3,1.4h0.4h46h0.4c5.7,0.6,11.5,5,11.7,12.1l5,62.6c0.3,5-1.6,12.1-7.9,15.8L73.8,92L46,107.1
			C44.7,107.9,43.2,108.2,41.7,108.2z"/>
		<path class="st1" d="M44.8,9.4h19.5c0,0,4.5,0.5,4.5,4.5l5,62.7c0,0,0.4,5.9-3.9,8.4l-27.7,15.1c-0.4,0.2-0.9,0-0.9,0L13.6,85
			c-4.3-2.5-3.9-8.4-3.9-8.4l5-62.7c0-4.1,4.5-4.5,4.5-4.5h19.5C38.7,9.4,44.8,9.4,44.8,9.4z"/>
	</g>
	<g>
		<line class="st2" x1="38.7" y1="63.9" x2="38.7" y2="72.1"/>
		<line class="st2" x1="46.2" y1="63.9" x2="46.2" y2="72.1"/>
		<path class="st2" d="M51.2,75.8h-18c-1,0-1.9-0.8-1.9-1.9v-0.4c0-1,0.8-1.9,1.9-1.9h18c1,0,1.9,0.8,1.9,1.9v0.4
			C53,74.9,52.2,75.8,51.2,75.8z"/>
		<path class="st2" d="M28.3,54.6L28.3,54.6c-3.6,0-7.9-3.9-7.9-8.8v-9c0-0.9,0.8-1.7,1.7-1.7h6.2V54.6z"/>
		<path class="st2" d="M56.4,54.6L56.4,54.6c3.6,0,7.9-3.9,7.9-8.8v-9c0-0.9-0.8-1.7-1.7-1.7h-6.2C56.4,35.1,56.4,54.6,56.4,54.6z"
			/>
		<path class="st3" d="M43.6,63.9h-2.8c-6.9,0-12.5-5.6-12.5-12.5V31.9h27.9v19.5C56.2,58.3,50.6,63.9,43.6,63.9z"/>
		<path class="st3" d="M31.7,43.7c0,0,0,4.6,0,8.9s3,8.3,9.7,8.3"/>
	</g>
</g>
</svg>
