<?xml version="1.0" encoding="utf-8"?>
<!-- Generator: Adobe Illustrator 22.1.0, SVG Export Plug-In . SVG Version: 6.00 Build 0)  -->
<svg version="1.1" id="Слой_1" xmlns="http://www.w3.org/2000/svg" xmlns:xlink="http://www.w3.org/1999/xlink" x="0px" y="0px"
	 viewBox="0 0 98.5 112.2" style="enable-background:new 0 0 98.5 112.2;" xml:space="preserve">
<style type="text/css">
	
		.st0{opacity:0.15;fill:#D2D8E6;stroke:#0563AB;stroke-width:0.9983;stroke-miterlimit:10;stroke-dasharray:3.9931,2.4957;enable-background:new    ;}
	.st1{fill:#FFFFFF;stroke:#0563AB;stroke-width:1.4974;stroke-miterlimit:10;}
	.st2{fill:none;stroke:#0563AB;stroke-width:1.4974;stroke-linecap:round;stroke-miterlimit:10;}
	.st3{fill:#FFFFFF;stroke:#FBB715;stroke-width:1.9966;stroke-miterlimit:10;}
	.st4{fill:none;stroke:#FBB715;stroke-width:1.9966;stroke-linecap:round;stroke-linejoin:round;stroke-miterlimit:10;}
</style>
<g>
	<path class="st0" d="M44.4,107.4C1.7,78.5,1,48.4,1.1,44.6V2.2h95.6v42.4c0.1,3.8-0.6,33.9-43.3,62.8l-4.5,3L44.4,107.4z"/>
	<path class="st1" d="M56.3,10.2h32.4v34.5c0,0,1.7,28.1-39.8,56.1C7.4,72.8,9.1,44.7,9.1,44.7V10.2h32.4H56.3z"/>
</g>
<g>
	<path class="st2" d="M26.3,37.9c6.8,2.1,11.4-5.4,22.5-5.4s17.1,8,22.7,5.3"/>
	<path class="st1" d="M56.4,71.4H41.2v-2c0-2.8,2.3-5.1,5.1-5.1h5c2.8,0,5.1,2.3,5.1,5.1V71.4z"/>
	<path class="st3" d="M55.9,55.5h16.4v1.4c0,2.6-2.1,4.6-4.6,4.6h-7.2c-2.6,0-4.6-2.1-4.6-4.6V55.5z"/>
	<polyline class="st4" points="58.3,55.5 64.1,36.3 69.2,55.5 	"/>
	<path class="st3" d="M25.6,55.5H42v1.4c0,2.6-2.1,4.6-4.6,4.6h-7.1c-2.6,0-4.6-2.1-4.6-4.6v-1.4H25.6z"/>
	<polyline class="st4" points="28.1,55.5 33.8,36.3 39,55.5 	"/>
	<line class="st2" x1="48.8" y1="29.3" x2="48.8" y2="64.3"/>
</g>
</svg>
