<?xml version="1.0" encoding="utf-8"?>
<!-- Generator: Adobe Illustrator 22.1.0, SVG Export Plug-In . SVG Version: 6.00 Build 0)  -->
<svg version="1.1" id="Слой_1" xmlns="http://www.w3.org/2000/svg" xmlns:xlink="http://www.w3.org/1999/xlink" x="0px" y="0px"
	 viewBox="0 0 87.3 108.2" style="enable-background:new 0 0 87.3 108.2;" xml:space="preserve">
<style type="text/css">
	
		.st0{opacity:0.15;fill:#D2D8E6;stroke:#0563AB;stroke-width:0.9553;stroke-miterlimit:10;stroke-dasharray:3.8212,2.3882;enable-background:new    ;}
	.st1{fill:#FFFFFF;stroke:#0563AB;stroke-width:1.4329;stroke-miterlimit:10;}
	.st2{fill:#FFFFFF;stroke:#0563AB;stroke-width:1.9106;stroke-miterlimit:10;}
	.st3{fill:none;stroke:#0563AB;stroke-width:1.9106;stroke-miterlimit:10;}
	.st4{fill:none;stroke:#FBB715;stroke-width:1.9106;stroke-miterlimit:10;}
</style>
<g>
	<g>
		<path class="st0" d="M38.8,101.1c-2.6-0.9-10.1-1.8-17-2.2c-0.4,0-0.7,0-1.1,0c-7.3,0-11.6-3-13.9-5.5C2.1,88.3,1.9,81.6,2,79.8
			V12.1l8,0.2c1.6,0,2.9-1.3,2.9-2.9V9.3l-0.2-7.8h7.8h54.4l-0.1,7.8v0.2c0,1.6,1.3,2.9,2.9,2.9h-0.1l7.9-0.3v67.7
			c0.1,1.8,0,8.5-4.8,13.6c-2.3,2.5-6.7,5.5-13.9,5.5c-0.4,0-0.7,0-1.1,0c-7,0.4-14.5,1.4-17,2.2l-4.9,5.4L38.8,101.1z"/>
		<path class="st1" d="M65.6,91.2c0,0-19.3,1-21.9,3.9c-2.7-3-21.9-3.9-21.9-3.9C8.7,91.9,9.6,79.9,9.6,79.9V20c0.1,0,0.3,0,0.4,0
			c5.8,0,10.5-4.7,10.5-10.5c0-0.1,0-0.2,0-0.3h46.6c0,0.1,0,0.2,0,0.3c0,5.8,4.7,10.5,10.5,10.5c0.1,0,0.2,0,0.2,0v59.9
			C77.8,79.9,78.7,91.9,65.6,91.2z"/>
	</g>
	<g>
		<rect x="24.1" y="41.4" class="st2" width="39.2" height="24"/>
		<path class="st3" d="M34.9,40.9v-3.2c0-1.6,1.3-2.9,2.9-2.9h11.4c1.6,0,2.9,1.3,2.9,2.9v3.2"/>
		<line class="st3" x1="31.9" y1="41.4" x2="31.9" y2="65.4"/>
		<line class="st3" x1="55.6" y1="41.4" x2="55.6" y2="65.4"/>
		<line class="st4" x1="37.8" y1="53.4" x2="49.6" y2="53.4"/>
		<line class="st4" x1="43.5" y1="47.5" x2="43.5" y2="59.3"/>
	</g>
</g>
</svg>
