<?xml version="1.0" encoding="utf-8"?>
<!-- Generator: Adobe Illustrator 22.1.0, SVG Export Plug-In . SVG Version: 6.00 Build 0)  -->
<svg version="1.1" id="Слой_1" xmlns="http://www.w3.org/2000/svg" xmlns:xlink="http://www.w3.org/1999/xlink" x="0px" y="0px"
	 viewBox="0 0 104 112.2" style="enable-background:new 0 0 104 112.2;" xml:space="preserve">
<style type="text/css">
	
		.st0{opacity:0.15;fill:#D2D8E6;stroke:#0563AB;stroke-width:0.9639;stroke-miterlimit:10;stroke-dasharray:3.8555,2.4097;enable-background:new    ;}
	.st1{fill:#FFFFFF;stroke:#0563AB;stroke-width:1.4458;stroke-miterlimit:10;}
	.st2{fill:none;stroke:#0563AB;stroke-width:1.9277;stroke-miterlimit:10;}
	.st3{fill:#FFFFFF;stroke:#FBB715;stroke-width:1.9277;stroke-miterlimit:10;}
	.st4{fill:none;stroke:#FBB715;stroke-width:1.9277;stroke-miterlimit:10;}
</style>
<g>
	<g>
		<path class="st0" d="M48.5,108.8C17,93,6.4,67.8,3,49.4c-3.6-19.6,0.1-35.5,0.2-36.2L5.9,2l9.3,6.7c8.6,6.2,12.5,6.7,13.6,6.7
			c0.1-0.3,0.2-0.6,0.2-0.6l0.1-7.6h46.1L75,14.9c0,0.2,0.1,0.5,0.2,0.7c1.1,0,5-0.6,13.6-6.7l9.3-6.7l2.7,11.2
			c0.2,0.7,3.9,16.6,0.2,36.2C97.6,67.9,86.9,93.1,55.5,109l-3.5,1.7L48.5,108.8z"/>
		<path class="st1" d="M52,101.9C-3.4,74,10.8,15.1,10.8,15.1c25.6,18.4,26,0,26,0h30.6c0,0,0.3,18.4,25.9,0
			C93.2,15.1,107.4,74,52,101.9z"/>
	</g>
	<g>
		<path class="st2" d="M41,45.5c0,0-4.4,5.2-5,10.3s0.6,10.3,0.9,12.9c0.4,2.6,0.4,6.7,8.5,7.7c1.5,0.3,3.9,2.7,8.5,2.7
			s7.4-4.5,7.4-4.5s5.6,1.4,6.8-1.9c1.2-3.3,2-12.5,1.7-15.7c-0.3-3.3-4.1-10.7-5.6-12"/>
		<path class="st2" d="M45.8,75.9c-1.6-2.5-4.5-4.8-4.7-9.2s1-10.5,3.5-13.2c1.5,0.2,2.7,2.6,5.2,2s6.3-4.1,10-3.1
			c1.3,1,5.2,7.5,4.7,12.5c-0.6,5.1-3.1,9.6-3.1,9.6"/>
		<path class="st3" d="M41,45.5c0,0,6.2-1.2,11.8-1.2s11.9,1.2,11.9,1.2l3-11c0,0-4.9-1.9-14.4-1.9s-15.4,2.2-15.4,2.2L41,45.5z"/>
		<line class="st4" x1="52.8" y1="35.2" x2="52.8" y2="40.4"/>
		<line class="st4" x1="50.3" y1="37.8" x2="55.4" y2="37.8"/>
	</g>
</g>
</svg>
