<?xml version="1.0" encoding="utf-8"?>
<!-- Generator: Adobe Illustrator 22.1.0, SVG Export Plug-In . SVG Version: 6.00 Build 0)  -->
<svg version="1.1" id="Слой_1" xmlns="http://www.w3.org/2000/svg" xmlns:xlink="http://www.w3.org/1999/xlink" x="0px" y="0px"
	 viewBox="0 0 67 52.5" style="enable-background:new 0 0 67 52.5;" xml:space="preserve">
<path d="M66.9,26.7L66.9,26.7c0.1-0.3,0.1-0.7,0-1l0,0c-0.1-0.2-0.2-0.3-0.3-0.4l0,0l-22-24.8c-0.6-0.6-1.5-0.7-2.1-0.1
	s-0.7,1.5-0.1,2.1l19.8,22.2H1.5c-0.8,0-1.5,0.7-1.5,1.5s0.7,1.5,1.5,1.5h60.7L42.3,50c-0.6,0.6-0.5,1.6,0.1,2.1s1.6,0.5,2.1-0.1
	l22-24.8l0,0C66.7,27.1,66.8,26.9,66.9,26.7z"/>
</svg>
