<?xml version="1.0" encoding="utf-8"?>
<!-- Generator: Adobe Illustrator 22.1.0, SVG Export Plug-In . SVG Version: 6.00 Build 0)  -->
<svg version="1.1" id="Слой_1" xmlns="http://www.w3.org/2000/svg" xmlns:xlink="http://www.w3.org/1999/xlink" x="0px" y="0px"
	 viewBox="0 0 52.5 67" style="enable-background:new 0 0 52.5 67;" xml:space="preserve">
<path d="M25.8,66.9L25.8,66.9c0.3,0.1,0.7,0.1,1,0l0,0c0.2-0.1,0.3-0.2,0.4-0.3l0,0l24.8-22c0.6-0.6,0.7-1.5,0.1-2.1
	s-1.5-0.7-2.1-0.1L27.8,62.2V1.5c0-0.8-0.7-1.5-1.5-1.5s-1.5,0.7-1.5,1.5v60.7L2.5,42.4c-0.6-0.6-1.6-0.5-2.1,0.1s-0.5,1.6,0.1,2.1
	l24.8,22l0,0C25.5,66.8,25.6,66.9,25.8,66.9z"/>
</svg>
