<?xml version="1.0" encoding="utf-8"?>
<!-- Generator: Adobe Illustrator 22.1.0, SVG Export Plug-In . SVG Version: 6.00 Build 0)  -->
<svg version="1.1" id="Слой_1" xmlns="http://www.w3.org/2000/svg" xmlns:xlink="http://www.w3.org/1999/xlink" x="0px" y="0px"
	 viewBox="0 0 52.5 67" style="enable-background:new 0 0 52.5 67;" xml:space="preserve">
<path d="M26.7,0.1L26.7,0.1c-0.3-0.1-0.7-0.1-1,0l0,0c-0.2,0.1-0.3,0.2-0.4,0.3l0,0l-24.8,22c-0.6,0.6-0.7,1.5-0.1,2.1
	s1.5,0.7,2.1,0.1L24.7,4.9v60.7c0,0.8,0.7,1.5,1.5,1.5s1.5-0.7,1.5-1.5V4.9L50,24.7c0.6,0.6,1.6,0.5,2.1-0.1s0.5-1.6-0.1-2.1
	l-24.8-22l0,0C27.1,0.3,26.9,0.2,26.7,0.1z"/>
</svg>
