<?xml version="1.0" encoding="utf-8"?>
<!-- Generator: Adobe Illustrator 22.1.0, SVG Export Plug-In . SVG Version: 6.00 Build 0)  -->
<svg version="1.1" id="Слой_1" xmlns="http://www.w3.org/2000/svg" xmlns:xlink="http://www.w3.org/1999/xlink" x="0px" y="0px"
	 viewBox="0 0 67 52.5" style="enable-background:new 0 0 67 52.5;" xml:space="preserve">
<path d="M0.1,25.8L0.1,25.8c-0.1,0.3-0.1,0.7,0,1l0,0c0.1,0.2,0.2,0.3,0.3,0.4l0,0l22,24.8c0.6,0.6,1.5,0.7,2.1,0.1s0.7-1.5,0.1-2.1
	L4.8,27.8h60.7c0.8,0,1.5-0.7,1.5-1.5s-0.7-1.5-1.5-1.5H4.8L24.7,2.5c0.6-0.6,0.5-1.6-0.1-2.1S23-0.1,22.4,0.5l-22,24.8l0,0
	C0.3,25.4,0.2,25.6,0.1,25.8z"/>
</svg>
