<?xml version="1.0" encoding="utf-8"?>
<!-- Generator: Adobe Illustrator 22.1.0, SVG Export Plug-In . SVG Version: 6.00 Build 0)  -->
<svg version="1.1" id="Режим_изоляции"
	 xmlns="http://www.w3.org/2000/svg" xmlns:xlink="http://www.w3.org/1999/xlink" x="0px" y="0px" viewBox="0 0 19.4 15.9"
	 style="enable-background:new 0 0 19.4 15.9;" xml:space="preserve">
<g>
	<g>
		<path d="M19,0h-7.4c-0.3,0-0.5,0.2-0.5,0.5v7.4c0,0.3,0.2,0.5,0.5,0.5h6.9c-0.2,3.8-3,6.5-6.9,6.5c-0.3,0-0.5,0.2-0.5,0.5
			s0.2,0.5,0.5,0.5c4.6,0,7.8-3.2,7.8-7.8V0.7C19.5,0.2,19.3,0,19,0z M12.1,0.9h6.5v6.5h-6.5V0.9z"/>
		<path d="M7.9,0H0.5C0.2,0,0,0.2,0,0.5v7.4c0,0.3,0.2,0.5,0.5,0.5h6.9c-0.2,3.8-3,6.5-6.9,6.5c-0.3,0-0.5,0.2-0.5,0.5
			s0.2,0.5,0.5,0.5c4.6,0,7.8-3.2,7.8-7.8V0.7C8.4,0.2,8.2,0,7.9,0z M1,0.9h6.5v6.5H1V0.9z"/>
	</g>
</g>
</svg>
