<?xml version="1.0" encoding="utf-8"?>
<!-- Generator: Adobe Illustrator 22.1.0, SVG Export Plug-In . SVG Version: 6.00 Build 0)  -->
<svg version="1.1" id="Режим_изоляции"
	 xmlns="http://www.w3.org/2000/svg" xmlns:xlink="http://www.w3.org/1999/xlink" x="0px" y="0px" viewBox="0 0 127.5 170.3"
	 style="enable-background:new 0 0 127.5 170.3;" xml:space="preserve">
<style type="text/css">
	.st0{fill:#0060AA;}
</style>
<path class="st0" d="M63.1,168.2c5.4-1.9,26-14.6,30.2-17.7c4.8-3.5,8.9-6.8,12.7-11c3.5-3.8,7.8-10,8.7-14.9l8.2,0l0-6.9
	c2-0.5,2.3-0.5,4.4-2.1c-2.2-1.7-4.4-2.2-4.4-6.3l-0.1-76.9c0-3.7-0.2-4.9,3.8-8c-3-1-5.6-1.9-9-1.5l-0.2-10.9L94,12
	c-0.7-0.4-3.3-3.7-4.7-4.7c-6.8-5-14-6.4-22.8-6.8C60.6,0,50.5,0.6,44,0.8c-3.8,0.1-4.6,0.8-5.9,1.9c-2-2.6-8.8-1.5-12.4-1
	c3.9,3.5,4.7,5.2,4.7,10.3L9.7,12L9.6,22.8c-3.8-0.1-6.1,0.3-9.1,2.1c3,1.5,4.2,3.1,4.1,7.2c0,4.3,0,7.9,0,12.1c0,8.7,0,17.3-0.1,26
	l-0.1,38.6c0,2.6-1.8,5.5-4.5,6.7c1.9,1.2,2.3,1.4,4.5,2.2l-0.1,6.9l7.2,0c4.4,16,22.1,26.9,36.1,35.1
	C49.8,161,61.7,167.7,63.1,168.2 M38.4,7c1.2-2,1.8-2.8,4.4-3.1c2.2-0.2,5-0.2,7.3-0.3c4.9-0.2,10.1-0.3,15-0.1c8,0.3,17.1,1.5,23,7
	c8.6,8,6.8,23-2.8,29.9c-2.5,1.8-4.6,2.8-7.5,3.7c-1.3,0.4-2,0.1-2.3,1.2c0.5,0.9,2.1,0.8,3.2,1.1c24.6,5.8,21.4,28.7,12.7,36.2
	c-3.6,3.1-5.4,4.7-10,6.6c-9.5,4-20.1,3.8-30.3,3.5c-2.5-0.1-5.4-0.1-7.9-0.4c-3.2-0.4-3.4-1-4.9-3.3c-0.9,1.2-0.8,1.9-2.3,2.6
	c-1.4,0.7-2.7,0.8-4.2,0.6c1-1.3,1.4-2,1.7-3.2c0.5-2.2-0.1-33.8,0.1-34.3c0.7-0.7,2.8-0.6,3.9-0.5c0,4.3,0.2,8.6,0.4,12.9
	c0.2,3.3,0.2,9.1,1,12.2l1-25.3l3.2,0.1l0,31.9c6,1,16.2,1.5,22.3,0.9c24.2-2.3,27.2-30.2,6.9-35.1l0-10.2c2-1.7,3.8-2.7,5.4-4.7
	c5.4-6.6,4.8-16.2,0-21.7c-3.3-3.7-9.3-5.5-14.5-5.7c-6.7-0.3-13.3-0.1-20,0.5l0,31L40,40.7l-1.2-23.5c-1,7.1-1.1,16-1.2,23.4
	l-3.8-0.4c-0.2-9.2-0.1-19.3-0.1-28.7c0-4.7,0.4-4-2.2-7.6C36,3.8,36.2,4,38.4,7z M96.9,22.5c-0.2-2.9-0.6-4.4-1.3-7
	c1.9-0.2,15.9-0.3,17.1,0.1l0.1,7.4C107.8,22.2,99.2,23.1,96.9,22.5z M46.5,16.1c-0.1-3.9-0.2-3.5,1.4-3.6
	c3.8-0.2,13.5-0.3,16.7,0.1c5.3,0.6,11.8,3.3,12.8,8.7c-2-1.3-3-2.5-5.7-3.5C62.9,14.4,52.1,16.7,46.5,16.1z M23.5,47.2
	c-2.4,4.5-1.7,4.2-1.2,9.1c0.5,4.6-0.5,4.9,2,8.2c1.9-2.6,3.3-3.2,6-3.4c0,6.4,0,12.8,0,19.2c0,1.1,0.1,3,0.1,4.8
	c0,3.8-1.2,5.7-4.3,8.2c1.3,0.8,2.7,1.5,4.2,1.7c0,2.3-0.2,4.5,0.1,6.8l25.5,0.6l0,3.7l-35.4,0l-0.1-75.3c0-2.5,1.5-4.3,3-6.3
	c-3-0.9-4.8-2.3-8.9-1.3l0.1-7.7l15.8-0.1v24.4c-2.4-0.4-3.9-0.9-6.2-3.2C21.7,40.7,21.8,42.9,23.5,47.2z M46.6,19.2
	c4.8-0.5,11.6-0.4,16.5-0.2c3.5,0.2,10.4,1.7,11.9,4.3c-5.4-0.4-5.8-1.6-10.9,0.9c-4-2.5-8.8-1.3-13.3-0.6c1,1.4,5.1,4.9,5.3,6.1
	c0.4,2,0.1,8.8,0.1,11.3l-9.6,0.2C46.5,38.3,46.2,20.6,46.6,19.2z M17.2,109.2l42,0l0-13.1l4,0l0.3,3.9c0.6-1.1,0.2-2.6,0.6-3.9
	l4.5-0.4l0,13.4c5.2,0,16,1.2,19.8-1.8c0.6,5.7-3,5.5-5.6,6.4c4.9,0,8.2-0.2,12,3c3.1,2.5,4.2,6.6,4.3,10.4
	c0.2,8.5-6,13.3-14.1,15.5c-15,4.1-27.7-2.2-40.3-2.4c-5.9-0.1-7.5,0.8-12.7,2.4c0.7-2.3,1.6-3.3,2.6-5.2l-2.9,0.8
	c0.7-3.1,3-6.6,5.8-8.3c3.6-2.2,8.4-2.3,12.6-2c9.4,0.8,31.7,7.3,37.1,0.7c2.5-3.1,1.4-7.7-2.1-9.7c-2.7-1.6-8.3-2.3-11.5-3
	c-4.1-1-8.2-0.7-9.6-4.7c-1.7,4.5-4.9,3.6-11.1,3.6c-9.9,0-19.7,0-29.6,0c-4.4,0-9.3,1-10.9-3.6c-1.2,3.2-3.3,3.8-6.7,3.5
	c1.8-2.4,1.9-3.2,2-9.5L7.9,36c0-7,0.2-7.3-2-10.1c5.6-0.5,6,2.2,6.8,3.5c0.5-2.3,2.8-4,6.2-3.5c-1.3,1.2-1.4,1.7-1.7,3.3
	C16.9,31,17.2,106.6,17.2,109.2z M68.6,82.8l-3.8,0.7c0.4-14.4,0.4-29.6-0.9-43.9c-1.5,3.8-1.2,37.8-1.1,44l-3.4,0l0.1-51.8
	c0-4-0.3-2.9-1.9-5.8c3.5-0.6,5.4,0.3,6.6,3.4c0.9-2.6,3.8-4.5,6.5-3.2c-0.8,1.7-2,0.9-2,5.4C68.6,38.1,69,80.8,68.6,82.8z
	 M97.2,25.8c3.7,0,7.3,0,11,0c4.3,0,4.9,0.4,6.8,3.8c1.5-2.9,2.6-4.2,6.5-3.6c-1,1.6-1.9,2.2-2,4.3c-0.1,1.8,0,3.9,0,5.7l0.1,34.5
	c0,7.7,0,15.4,0.1,23.1l0.1,17.4c0.2,2.1,1.1,2.3,2,3.8c-3.4,0.3-5.6,0-6.7-3.3c-1.6,3.3-2.6,3.7-6.8,3.3c0.7-1.2,1.8-1.9,2-3.5
	l0.2-58.6c0-2.7,0.2-20.2-0.1-21.3l-14.1,0L97.2,25.8z M72,37.5c-0.1-1.4-0.3-7.1,0.1-8.1c0.3-0.7,3.5-3.9,4.3-4.5
	c1.7,3.1,2.2,4.1,0.4,7.5C76,33.7,73.5,37.4,72,37.5z M97.4,34.4l9.7,0.1l0,3.6l-10.6,0L97.4,34.4z M84.5,44.8
	c0.9-1.1,4.4-2.4,7.6-6.6c-0.3,2.5-3.3,5.7-4.9,7.6L84.5,44.8z M55.7,44.2l0,6.1C49,50.1,38,50.2,31.2,51.2c-4.9,0.7-4.7,1.1-6,2.3
	c-0.2-4.1,0.6-4.6,4.1-6.3c-2.7-1.6-5-2.4-4-6.3c2.4,1.7,2.8,1.9,6,2.3c2.5,0.4,5.3,0.6,7.8,0.8C44.7,44.4,50.1,44.5,55.7,44.2z
	 M89.9,47.2c1.8-1.5,3.4-4,4.5-6.1h12.6c0.3,4.1,0,35.4,0,40.5c0,6.7,0,13.5,0,20.2c0,5.5,1.6,10.8-4.5,13.9
	c1.8,1.1,2.3,1.4,4.4,2.1l0,6.9l3.2,0c-0.9,3.4-5.3,10.6-8,12.7c0.4-4.9,0.8-12.2-0.9-16.8c-1.8-4.9-4.9-7-9.7-9
	c0.8-2.7,0.2-5.4-1.9-9c-2.7,4.5-2.7,3.6-17.5,3.6l0-4.6c12.3-1.5,24.2-8.7,27.9-19.9c1.3-4.1,0.7-6.6,1-10.6
	c0.4-7.4,0.3-11.7-4.6-18.1C93.7,49.5,90.8,48.3,89.9,47.2z M46.5,53.3l9.3,0l0,3.6l-9.3,0V53.3z M25.4,60.1
	c-0.3-2.9,1.9-5.3,4.9-5.5c0,4.8,0.4,3-2.7,4.2C26.8,59.1,26.2,59.7,25.4,60.1z M72.5,55c3.8,0.8,8.7,4.5,9.1,8.3
	c-1.6-1.9-6.4-4.4-9.1-4.9l0-1.5L72.5,55z M72,81.9l-0.1-20.5c4.3,0.8,11.2,5.5,9.9,10.2C80.7,75.8,76.6,80.7,72,81.9z M72,98.5
	c0-6.9-0.8-0.9,14-8c6.1-2.9,7.5-5.9,10.3-8.3c-1.1,4.2-5.7,8.4-9.1,10.8C83.1,95.7,76.9,97.8,72,98.5z M46.5,82.9
	c0-3.4-0.4-21.2,0.2-23l9.3,0c0.4,1.4,0.1,20.7,0.1,23.8l-7.6-0.2c-0.1,0-1.1-0.1-1.1-0.1C46.2,83.2,47,83.3,46.5,82.9z M33.7,95.4
	c2.8-0.6,2.2-0.3,4.7-1.7c5.9,2.7,10.4,1.6,17.6,2.1l0,3.5L33.7,99L33.7,95.4z M7.8,121.6c0-4.2-0.2-3.5,1-3.8
	c1.4-0.3,2.4-0.5,3.6-1.6c2.1,1,2.3,1.6,5.1,1.7c5.1,0.2,15.2,0,20.6,0c4.6,0,9.2,0,13.8,0c4.3,0,8.6,0.7,12-1.7
	c8.6,4.9,21.7,1.8,21.2,9.2c-4.2-1.4-7.2-1.8-11.3-2.8c-1.9-0.5-3.9-0.8-5.8-1.3c-2.3-0.6-3.3-1.2-3.9-3.4l-0.6,1.1
	c-1.7,3.2-6.8,2.4-10.6,2.4H22.9C17.9,121.6,12.8,121.5,7.8,121.6z M110.3,118c1.8-0.3,3.3-0.5,4.6-1.7c1.2,1,1.9,1.3,4.8,1.7
	l0.1,3.7l-9.5-0.1L110.3,118z M16.3,124.5c12,0.2,24.9,0.1,37.1,0.1c5.2,0,6.2,0.6,10.7-1.7c4,2.5,13.5,3.5,18.6,5
	c-0.2,0.2,0.2,0.4-1.8,0.7c-0.7,0.1-1.4,0.1-2.1,0.2c-7.2,0.2-19.9-2.8-29.8-3.1c-5.3-0.2-10.9,0.3-15.3,3.4
	c-1.5,1.1-3.4,3.1-4.4,4.7c-1.8,2.8-2.1,5.2-2.6,6.1C23.1,136.8,17.4,129.3,16.3,124.5z M35.8,147.1c-0.3-0.2-0.5-0.4-0.7-0.5
	l-0.8-0.7c11.4-4.6,21.8-0.2,33.3,1c9.8,1.1,23.5-0.3,30.1-7.4c-1.3,3.8-6.4,6.9-10.3,8.3c-5.3,1.9-11.4,2.4-17.1,1.9
	c-8.6-0.7-17.5-3.5-25.5-3.6C41.1,146,39.3,146.6,35.8,147.1z M35.3,137c8-2,9.4-2.2,18.7-0.8c11.6,1.7,24.9,5.5,35.1-1
	c1.8-1.2,4.1-3.1,5.1-5c1.7-2.9,1-4.9-0.4-7.5c0.4,5.6-2.2,8.8-8,11.1c-5.7,2.2-11.9,1.9-17.9,1.1C60.4,133.9,38.6,127.9,35.3,137z
	 M115.4,99.2c1.5-3.3,1.5-55.6,0-59.2C113.9,43.6,113.8,96,115.4,99.2z M12.3,101c1.6-21.1,1.2-40.8,0-61.9
	c-1.1,4.8-1.3,25.1-1.3,31C11.1,79.6,11,91.6,12.3,101z M85.3,54.1c1.7,2.2,3.7,2.9,5.3,7.5c1.2,3.5,1.1,7.1,0.1,10.6
	c-0.9,3-2.4,5.6-4.4,8c-3.2,3.8-4.3,3.9-6.5,6.1c5.4-2,11.6-8.8,13.2-14.1C94.9,65.4,91.6,57.2,85.3,54.1z M83.2,35.6
	c3.3-1.7,7.5-10.8,4.4-17.7c-2.3-5.2-9-9.7-15.2-10.2c1.1,0.6,2.8,1.1,4.1,1.7c3.8,1.9,7.4,4.7,9.2,8.5
	C89.1,24.9,86.7,29.6,83.2,35.6z M31.3,45c0.6,1.9,1.2,2.1,2.3,2.5c-1.2,0.3-2,0.8-2.3,2.3c6.1-2.4,13.8-1.7,20.2-2.5
	C41.9,46.4,41.5,47.9,31.3,45z M40.2,149.9c8-2.3,24.1,3.9,37,3c1.8-0.1,3.8-0.5,5.5-0.6c-1.6,1.5-17.3,10.3-19.5,11.1
	C60.1,161.9,41.3,151.6,40.2,149.9z"/>
</svg>
