<?xml version="1.0" encoding="utf-8"?>
<!-- Generator: Adobe Illustrator 22.1.0, SVG Export Plug-In . SVG Version: 6.00 Build 0)  -->
<svg version="1.1" id="Layer_1" xmlns="http://www.w3.org/2000/svg" xmlns:xlink="http://www.w3.org/1999/xlink" x="0px" y="0px"
	 viewBox="0 0 179 126.5" style="enable-background:new 0 0 179 126.5;" xml:space="preserve">
<style type="text/css">
	.st0{fill:#282828;}
</style>
<path class="st0" d="M173.8,20.6c-2-7.6-8-13.6-15.6-15.7c-13.7-3.7-68.8-3.7-68.8-3.7s-55,0-68.8,3.7C13.2,7,7.2,13,5.2,20.6
	C1.5,34.4,1.5,63.2,1.5,63.2s0,28.8,3.7,42.6c2,7.6,8,13.6,15.6,15.7c13.7,3.7,68.8,3.7,68.8,3.7s55,0,68.8-3.7
	c7.6-2,13.5-8,15.6-15.7c3.7-13.8,3.7-42.6,3.7-42.6S177.5,34.4,173.8,20.6z M71.5,89.4V37.1l46,26.2L71.5,89.4z"/>
</svg>
