<?xml version="1.0" encoding="utf-8"?>
<!-- Generator: Adobe Illustrator 22.1.0, SVG Export Plug-In . SVG Version: 6.00 Build 0)  -->
<svg version="1.2" baseProfile="tiny" id="Слой_1"
	 xmlns="http://www.w3.org/2000/svg" xmlns:xlink="http://www.w3.org/1999/xlink" x="0px" y="0px" viewBox="0 0 51.9 51.9"
	 xml:space="preserve">
<circle fill="#FFFFFF" cx="26" cy="26" r="26"/>
<g>
	<g>
		<path fill="#0060AA" d="M38.8,37.8c0.3,0.3,0.3,0.7,0,1s-0.7,0.3-1,0L30,31c-0.1-0.1-0.4-0.2-0.5,0c0,0-0.1,0.1-0.3,0.3
			c-1.7,1.3-3.8,2-6.1,2c-5.6,0-10.2-4.6-10.2-10.2s4.6-10.2,10.2-10.2s10.2,4.6,10.2,10.2c0,2.2-0.7,4.3-1.9,5.9
			c-0.2,0.3-0.3,0.4-0.3,0.4c-0.1,0.2-0.1,0.4,0,0.5L38.8,37.8z M23.1,31.8c4.8,0,8.7-3.9,8.7-8.7s-3.9-8.7-8.7-8.7
			s-8.7,3.9-8.7,8.7S18.2,31.8,23.1,31.8z M24.1,22.3h3.3c0.4,0,0.7,0.3,0.7,0.7c0,0.4-0.3,0.7-0.7,0.7h-3.3c-0.2,0-0.4,0.2-0.4,0.4
			v3.3c0,0.4-0.3,0.7-0.7,0.7c-0.4,0-0.7-0.3-0.7-0.7v-3.3c0-0.2-0.2-0.4-0.4-0.4h-3.3c-0.4,0-0.7-0.3-0.7-0.7
			c0-0.4,0.3-0.7,0.7-0.7H22c0.2,0,0.4-0.2,0.4-0.4v-3.3c0-0.4,0.3-0.7,0.7-0.7c0.4,0,0.7,0.3,0.7,0.7V22
			C23.8,22.2,23.9,22.3,24.1,22.3z"/>
	</g>
</g>
</svg>
